<?xml version="1.0" encoding="UTF-8"?>
<!DOCTYPE svg PUBLIC "-//W3C//DTD SVG 1.1//EN" "http://www.w3.org/Graphics/SVG/1.1/DTD/svg11.dtd">
<svg xmlns="http://www.w3.org/2000/svg" version="1.1" width="512px" height="512px" style="shape-rendering:geometricPrecision; text-rendering:geometricPrecision; image-rendering:optimizeQuality; fill-rule:evenodd; clip-rule:evenodd" xmlns:xlink="http://www.w3.org/1999/xlink">
<g><path style="opacity:0.993" fill="#595959" d="M 118.5,-0.5 C 154.833,-0.5 191.167,-0.5 227.5,-0.5C 220.833,7.83333 214.167,16.1667 207.5,24.5C 179.833,24.5 152.167,24.5 124.5,24.5C 123.24,18.4253 119.573,16.2586 113.5,18C 111.667,18.5 110.5,19.6667 110,21.5C 109.502,24.8168 109.335,28.1501 109.5,31.5C 108.509,38.3134 108.175,45.3134 108.5,52.5C 100.902,47.1927 92.5691,43.8594 83.5,42.5C 80.7044,27.2689 85.7044,15.4356 98.5,7C 105.021,3.77518 111.688,1.27518 118.5,-0.5 Z"/></g>
<g><path style="opacity:0.992" fill="#535353" d="M 227.5,-0.5 C 250.833,-0.5 274.167,-0.5 297.5,-0.5C 317.142,1.32752 336.142,6.16086 354.5,14C 357.239,15.0259 359.572,16.5259 361.5,18.5C 349.45,19.5284 338.783,23.8617 329.5,31.5C 326.461,30.99 323.461,30.3234 320.5,29.5C 310.633,27.4674 300.633,25.9674 290.5,25C 262.835,24.5 235.169,24.3334 207.5,24.5C 214.167,16.1667 220.833,7.83333 227.5,-0.5 Z"/></g>
<g><path style="opacity:1" fill="#b6e668" d="M 124.5,24.5 C 124.5,26.1667 124.5,27.8333 124.5,29.5C 124.433,30.9587 124.766,32.2921 125.5,33.5C 125.253,36.9387 125.586,40.272 126.5,43.5C 126.298,45.9496 126.631,48.283 127.5,50.5C 127.875,56.4331 129.208,62.0998 131.5,67.5C 135.012,78.3764 139.679,88.7097 145.5,98.5C 144.848,99.7251 143.681,100.392 142,100.5C 138.196,101.205 134.363,101.538 130.5,101.5C 129.833,100.833 129.167,100.167 128.5,99.5C 126.576,95.9829 124.909,92.3163 123.5,88.5C 122.305,86.2487 121.305,83.9154 120.5,81.5C 118.268,75.6388 115.934,69.8054 113.5,64C 100.998,56.9698 88.6645,49.8032 76.5,42.5C 78.8333,42.5 81.1667,42.5 83.5,42.5C 92.5691,43.8594 100.902,47.1927 108.5,52.5C 109.794,53.2899 110.961,54.2899 112,55.5C 111.209,47.5488 110.376,39.5488 109.5,31.5C 109.335,28.1501 109.502,24.8168 110,21.5C 110.5,19.6667 111.667,18.5 113.5,18C 119.573,16.2586 123.24,18.4253 124.5,24.5 Z"/></g>
<g><path style="opacity:0.99" fill="#a5d850" d="M 371.5,18.5 C 374.48,19.2655 377.48,20.0989 380.5,21C 381.381,21.7083 382.047,22.5416 382.5,23.5C 375.329,27.2505 368.329,31.2505 361.5,35.5C 350.527,41.6546 339.527,47.8213 328.5,54C 326.937,54.7589 325.937,55.9256 325.5,57.5C 323.364,55.1877 321.364,52.6877 319.5,50C 319.833,49.6667 320.167,49.3333 320.5,49C 337.894,39.3106 354.894,29.144 371.5,18.5 Z"/></g>
<g><path style="opacity:1" fill="#222222" d="M 124.5,24.5 C 152.167,24.5 179.833,24.5 207.5,24.5C 235.169,24.3334 262.835,24.5 290.5,25C 300.633,25.9674 310.633,27.4674 320.5,29.5C 255.253,29.5806 189.92,29.5806 124.5,29.5C 124.5,27.8333 124.5,26.1667 124.5,24.5 Z"/></g>
<g><path style="opacity:1" fill="#292828" d="M 320.5,29.5 C 323.461,30.3234 326.461,30.99 329.5,31.5C 328.833,32.8333 327.833,33.8333 326.5,34.5C 268.469,33.4998 210.469,32.4998 152.5,31.5C 143.523,32.257 134.523,32.9237 125.5,33.5C 124.766,32.2921 124.433,30.9587 124.5,29.5C 189.92,29.5806 255.253,29.5806 320.5,29.5 Z"/></g>
<g><path style="opacity:1" fill="#323131" d="M 326.5,34.5 C 323.521,39.1101 320.521,43.7768 317.5,48.5C 299.833,35.9785 281.167,34.3118 261.5,43.5C 256.28,42.9694 251.113,42.3027 246,41.5C 244.938,42.0968 243.772,42.4302 242.5,42.5C 206.532,40.4229 170.532,39.5895 134.5,40C 131.639,40.8717 128.972,42.0384 126.5,43.5C 125.586,40.272 125.253,36.9387 125.5,33.5C 134.523,32.9237 143.523,32.257 152.5,31.5C 210.469,32.4998 268.469,33.4998 326.5,34.5 Z"/></g>
<g><path style="opacity:1" fill="#b5e566" d="M 361.5,18.5 C 364.833,18.5 368.167,18.5 371.5,18.5C 354.894,29.144 337.894,39.3106 320.5,49C 320.167,49.3333 319.833,49.6667 319.5,50C 321.364,52.6877 323.364,55.1877 325.5,57.5C 326.026,59.2303 327.026,60.5637 328.5,61.5C 328.875,63.6976 329.542,65.6976 330.5,67.5C 331.984,72.0334 332.65,76.7001 332.5,81.5C 332.737,82.791 332.404,83.791 331.5,84.5C 326.381,85.1031 321.715,84.4364 317.5,82.5C 316.746,66.9007 308.746,57.0673 293.5,53C 278.343,50.5835 266.676,55.7502 258.5,68.5C 253.697,74.2282 251.03,80.8948 250.5,88.5C 245.833,88.5 241.167,88.5 236.5,88.5C 236.5,86.1667 236.5,83.8333 236.5,81.5C 237.246,77.4346 238.246,73.4346 239.5,69.5C 243.079,62.6832 247.412,56.3499 252.5,50.5C 255.81,48.5179 258.81,46.1846 261.5,43.5C 281.167,34.3118 299.833,35.9785 317.5,48.5C 320.521,43.7768 323.521,39.1101 326.5,34.5C 327.833,33.8333 328.833,32.8333 329.5,31.5C 338.783,23.8617 349.45,19.5284 361.5,18.5 Z"/></g>
<g><path style="opacity:1" fill="#8bc032" d="M 382.5,23.5 C 383.334,26.5437 383,29.5437 381.5,32.5C 371.92,54.8029 354.92,66.4696 330.5,67.5C 329.542,65.6976 328.875,63.6976 328.5,61.5C 332.732,60.2705 335.732,57.6038 337.5,53.5C 345.776,50.1493 353.11,45.316 359.5,39C 360.823,38.1841 361.489,37.0174 361.5,35.5C 368.329,31.2505 375.329,27.2505 382.5,23.5 Z"/></g>
<g><path style="opacity:1" fill="#33352d" d="M 109.5,31.5 C 110.376,39.5488 111.209,47.5488 112,55.5C 110.961,54.2899 109.794,53.2899 108.5,52.5C 108.175,45.3134 108.509,38.3134 109.5,31.5 Z"/></g>
<g><path style="opacity:1" fill="#3c3b3c" d="M 261.5,43.5 C 258.81,46.1846 255.81,48.5179 252.5,50.5C 243.172,49.9827 233.839,49.4827 224.5,49C 221.941,47.1946 219.275,47.0279 216.5,48.5C 195.164,47.0189 173.831,45.6855 152.5,44.5C 151.833,44.8333 151.167,45.1667 150.5,45.5C 147.167,44.8333 143.833,44.1667 140.5,43.5C 135.805,45.2775 131.471,47.6108 127.5,50.5C 126.631,48.283 126.298,45.9496 126.5,43.5C 128.972,42.0384 131.639,40.8717 134.5,40C 170.532,39.5895 206.532,40.4229 242.5,42.5C 243.772,42.4302 244.938,42.0968 246,41.5C 251.113,42.3027 256.28,42.9694 261.5,43.5 Z"/></g>
<g><path style="opacity:1" fill="#0d0d0b" d="M 381.5,32.5 C 386.287,35.9481 389.954,40.2814 392.5,45.5C 385.563,49.6406 378.563,53.8072 371.5,58C 370.953,58.9246 370.287,59.7579 369.5,60.5C 356.913,67.0951 344.579,74.0951 332.5,81.5C 332.65,76.7001 331.984,72.0334 330.5,67.5C 354.92,66.4696 371.92,54.8029 381.5,32.5 Z"/></g>
<g><path style="opacity:1" fill="#77b236" d="M 361.5,35.5 C 361.489,37.0174 360.823,38.1841 359.5,39C 353.11,45.316 345.776,50.1493 337.5,53.5C 335.732,57.6038 332.732,60.2705 328.5,61.5C 327.026,60.5637 326.026,59.2303 325.5,57.5C 325.937,55.9256 326.937,54.7589 328.5,54C 339.527,47.8213 350.527,41.6546 361.5,35.5 Z"/></g>
<g><path style="opacity:1" fill="#474646" d="M 252.5,50.5 C 247.412,56.3499 243.079,62.6832 239.5,69.5C 222.5,69.5 205.5,69.5 188.5,69.5C 188.139,67.3952 189.139,65.5618 191.5,64C 188.738,62.2968 185.904,62.1302 183,63.5C 178.745,62.8634 174.745,61.53 171,59.5C 169.769,60.1078 168.436,60.4411 167,60.5C 157.148,59.5351 147.981,57.8684 139.5,55.5C 136.839,59.4835 134.173,63.4835 131.5,67.5C 129.208,62.0998 127.875,56.4331 127.5,50.5C 131.471,47.6108 135.805,45.2775 140.5,43.5C 143.833,44.1667 147.167,44.8333 150.5,45.5C 151.167,45.1667 151.833,44.8333 152.5,44.5C 173.831,45.6855 195.164,47.0189 216.5,48.5C 219.275,47.0279 221.941,47.1946 224.5,49C 233.839,49.4827 243.172,49.9827 252.5,50.5 Z"/></g>
<g><path style="opacity:1" fill="#1b1a1b" d="M 392.5,45.5 C 394.9,47.2964 396.567,49.6298 397.5,52.5C 397.586,53.4959 397.252,54.3292 396.5,55C 389.814,58.3043 383.147,61.471 376.5,64.5C 376.5,66.1667 376.5,67.8333 376.5,69.5C 372.202,69.9086 368.202,71.242 364.5,73.5C 353.843,79.8295 343.176,86.1628 332.5,92.5C 331.571,91.3112 331.238,89.9778 331.5,88.5C 331.5,87.1667 331.5,85.8333 331.5,84.5C 332.404,83.791 332.737,82.791 332.5,81.5C 344.579,74.0951 356.913,67.0951 369.5,60.5C 370.287,59.7579 370.953,58.9246 371.5,58C 378.563,53.8072 385.563,49.6406 392.5,45.5 Z"/></g>
<g><path style="opacity:1" fill="#424141" d="M 317.5,82.5 C 316.558,85.6552 315.224,88.6552 313.5,91.5C 298.496,75.83 280.162,68.1634 258.5,68.5C 266.676,55.7502 278.343,50.5835 293.5,53C 308.746,57.0673 316.746,66.9007 317.5,82.5 Z"/></g>
<g><path style="opacity:1" fill="#4d4c4d" d="M 188.5,69.5 C 179.6,71.2171 173.1,76.2171 169,84.5C 167.89,97.6043 167.057,110.604 166.5,123.5C 158.372,116.045 151.372,107.712 145.5,98.5C 139.679,88.7097 135.012,78.3764 131.5,67.5C 134.173,63.4835 136.839,59.4835 139.5,55.5C 147.981,57.8684 157.148,59.5351 167,60.5C 168.436,60.4411 169.769,60.1078 171,59.5C 174.745,61.53 178.745,62.8634 183,63.5C 185.904,62.1302 188.738,62.2968 191.5,64C 189.139,65.5618 188.139,67.3952 188.5,69.5 Z"/></g>
<g><path style="opacity:0.996" fill="#8bc133" d="M 60.5,47.5 C 68.7816,51.8031 76.7816,56.4698 84.5,61.5C 84.0618,61.4346 83.7284,61.6012 83.5,62C 86.1667,63.3333 88.1667,65.3333 89.5,68C 93.4819,69.3007 96.9819,71.4673 100,74.5C 100.492,75.549 100.326,76.549 99.5,77.5C 101.995,79.1492 103.495,81.4826 104,84.5C 104.333,84.1667 104.667,83.8333 105,83.5C 106.888,84.0195 108.221,85.6862 109,88.5C 109.654,87.3044 110.154,87.3044 110.5,88.5C 107.572,89.4841 104.572,89.8174 101.5,89.5C 95.157,89.0521 89.157,87.3854 83.5,84.5C 68.8557,76.1604 61.189,63.8271 60.5,47.5 Z"/></g>
<g><path style="opacity:0.998" fill="#282728" d="M 397.5,52.5 C 401.818,58.1382 404.818,64.4715 406.5,71.5C 406.778,73.3464 406.111,74.6798 404.5,75.5C 403.304,75.1543 403.304,74.6543 404.5,74C 402.238,73.3581 400.071,72.5248 398,71.5C 397.667,72.1667 397.333,72.8333 397,73.5C 396.326,72.4216 395.326,71.7549 394,71.5C 390.138,72.2056 386.305,73.039 382.5,74C 381.666,76.712 382,79.3787 383.5,82C 382.874,82.7504 382.374,83.5838 382,84.5C 381.311,83.6433 380.478,82.9767 379.5,82.5C 374.51,84.4926 369.51,86.3259 364.5,88C 351.562,95.5439 338.229,103.044 324.5,110.5C 323.833,109.167 323.167,107.833 322.5,106.5C 322.5,106.167 322.5,105.833 322.5,105.5C 326.823,100.52 329.823,94.8531 331.5,88.5C 331.238,89.9778 331.571,91.3112 332.5,92.5C 343.176,86.1628 353.843,79.8295 364.5,73.5C 368.202,71.242 372.202,69.9086 376.5,69.5C 376.5,67.8333 376.5,66.1667 376.5,64.5C 383.147,61.471 389.814,58.3043 396.5,55C 397.252,54.3292 397.586,53.4959 397.5,52.5 Z"/></g>
<g><path style="opacity:1" fill="#a3d74f" d="M 76.5,42.5 C 88.6645,49.8032 100.998,56.9698 113.5,64C 115.934,69.8054 118.268,75.6388 120.5,81.5C 108.527,74.8455 96.5272,68.1788 84.5,61.5C 76.7816,56.4698 68.7816,51.8031 60.5,47.5C 61.1223,45.665 62.4556,44.4983 64.5,44C 68.4402,42.9847 72.4402,42.4847 76.5,42.5 Z"/></g>
<g><path style="opacity:0.982" fill="#545554" d="M 188.5,69.5 C 205.5,69.5 222.5,69.5 239.5,69.5C 238.246,73.4346 237.246,77.4346 236.5,81.5C 235.833,86.1667 235.167,90.8333 234.5,95.5C 220.5,95.5 206.5,95.5 192.5,95.5C 192.5,106.833 192.5,118.167 192.5,129.5C 184.932,131.262 177.599,130.596 170.5,127.5C 169.167,126.167 167.833,124.833 166.5,123.5C 167.057,110.604 167.89,97.6043 169,84.5C 173.1,76.2171 179.6,71.2171 188.5,69.5 Z"/></g>
<g><path style="opacity:0.997" fill="#505150" d="M 258.5,68.5 C 280.162,68.1634 298.496,75.83 313.5,91.5C 309.012,100.575 301.679,104.075 291.5,102C 287.868,100.516 284.534,98.5164 281.5,96C 278.445,95.3658 275.445,95.5325 272.5,96.5C 265.687,95.5088 258.687,95.1755 251.5,95.5C 250.532,93.3926 250.198,91.0593 250.5,88.5C 251.03,80.8948 253.697,74.2282 258.5,68.5 Z"/></g>
<g><path style="opacity:1" fill="#79b335" d="M 84.5,61.5 C 96.5272,68.1788 108.527,74.8455 120.5,81.5C 121.305,83.9154 122.305,86.2487 123.5,88.5C 121.901,88.2322 120.568,88.5655 119.5,89.5C 117.585,89.2155 115.919,89.5489 114.5,90.5C 113.833,90.5 113.167,90.5 112.5,90.5C 111.167,90.5 109.833,90.5 108.5,90.5C 105.941,90.8016 103.607,90.4682 101.5,89.5C 104.572,89.8174 107.572,89.4841 110.5,88.5C 110.154,87.3044 109.654,87.3044 109,88.5C 108.221,85.6862 106.888,84.0195 105,83.5C 104.667,83.8333 104.333,84.1667 104,84.5C 103.495,81.4826 101.995,79.1492 99.5,77.5C 100.326,76.549 100.492,75.549 100,74.5C 96.9819,71.4673 93.4819,69.3007 89.5,68C 88.1667,65.3333 86.1667,63.3333 83.5,62C 83.7284,61.6012 84.0618,61.4346 84.5,61.5 Z"/></g>
<g><path style="opacity:1" fill="#363536" d="M 396.5,198.5 C 395.139,200.85 393.806,203.184 392.5,205.5C 390.273,207.607 388.273,209.94 386.5,212.5C 383.833,214.5 381.5,216.833 379.5,219.5C 376.888,220.779 374.555,222.445 372.5,224.5C 372.167,224.5 371.833,224.5 371.5,224.5C 372.485,213.003 372.485,201.669 371.5,190.5C 381.776,175.509 387.61,158.843 389,140.5C 390.649,121.401 389.149,102.568 384.5,84C 385.962,81.7995 387.962,81.1328 390.5,82C 389.66,83.6665 390.16,83.8331 392,82.5C 393.419,83.4601 394.919,84.2935 396.5,85C 396.167,85.3333 395.833,85.6667 395.5,86C 398.102,86.7387 399.769,88.4054 400.5,91C 399.356,99.9878 398.189,109.488 397,119.5C 396.554,139.835 396.054,160.168 395.5,180.5C 395.5,186.676 395.834,192.676 396.5,198.5 Z"/></g>
<g><path style="opacity:0.997" fill="#595959" d="M 83.5,84.5 C 89.157,87.3854 95.157,89.0521 101.5,89.5C 103.607,90.4682 105.941,90.8016 108.5,90.5C 108.5,107.167 108.5,123.833 108.5,140.5C 100.403,150.353 92.0698,160.02 83.5,169.5C 83.5,141.167 83.5,112.833 83.5,84.5 Z"/></g>
<g><path style="opacity:1" fill="#222222" d="M 108.5,90.5 C 109.833,90.5 111.167,90.5 112.5,90.5C 112.665,166.27 112.999,241.937 113.5,317.5C 111.447,317.598 109.78,316.931 108.5,315.5C 108.5,257.167 108.5,198.833 108.5,140.5C 108.5,123.833 108.5,107.167 108.5,90.5 Z"/></g>
<g><path style="opacity:1" fill="#282828" d="M 112.5,90.5 C 113.167,90.5 113.833,90.5 114.5,90.5C 115.119,166.737 116.119,243.07 117.5,319.5C 115.847,319.34 114.514,318.674 113.5,317.5C 112.999,241.937 112.665,166.27 112.5,90.5 Z"/></g>
<g><path style="opacity:1" fill="#2f2e2f" d="M 114.5,90.5 C 115.5,90.5 116.5,90.5 117.5,90.5C 118.295,153.786 119.462,217.12 121,280.5C 122.048,294.491 122.882,308.491 123.5,322.5C 121.181,322.008 119.181,321.008 117.5,319.5C 116.119,243.07 115.119,166.737 114.5,90.5 Z"/></g>
<g><path style="opacity:1" fill="#353435" d="M 267.5,250.5 C 248.14,250.217 228.806,250.55 209.5,251.5C 209.172,263.678 209.505,275.678 210.5,287.5C 208.64,288.939 206.973,290.605 205.5,292.5C 204.504,279.01 204.171,265.344 204.5,251.5C 206.861,251.326 209.194,250.993 211.5,250.5C 210.286,239.542 209.619,228.542 209.5,217.5C 207.856,217.714 206.356,217.38 205,216.5C 204.5,208.507 204.334,200.507 204.5,192.5C 202.167,192.5 199.833,192.5 197.5,192.5C 195.833,192.5 194.167,192.5 192.5,192.5C 192.5,192.167 192.5,191.833 192.5,191.5C 198.167,191.5 203.833,191.5 209.5,191.5C 210.568,192.434 211.901,192.768 213.5,192.5C 213.5,200.5 213.5,208.5 213.5,216.5C 233.469,217.631 253.469,217.797 273.5,217C 306.052,209.778 324.885,189.611 330,156.5C 330.667,147.5 330.667,138.5 330,129.5C 329.125,126.117 328.125,122.784 327,119.5C 320.622,122.606 314.455,126.106 308.5,130C 306.735,130.64 305.068,130.473 303.5,129.5C 302.559,125.675 301.226,122.009 299.5,118.5C 308.366,116.9 316.033,112.9 322.5,106.5C 323.167,107.833 323.833,109.167 324.5,110.5C 324.767,114.711 326.767,117.711 330.5,119.5C 333.333,117.821 336,115.987 338.5,114C 338.167,113.667 337.833,113.333 337.5,113C 344.417,108.959 351.25,104.792 358,100.5C 358.388,101.428 359.055,102.095 360,102.5C 361.895,101.773 363.895,100.773 366,99.5C 367.646,101.141 368.646,100.807 369,98.5C 369.667,101.167 370.333,101.167 371,98.5C 371.853,100.125 372.853,100.458 374,99.5C 374.883,102.102 376.383,104.269 378.5,106C 377.932,107.296 377.932,108.796 378.5,110.5C 378.333,111.5 378.167,112.5 378,113.5C 377.333,114.833 376.667,114.833 376,113.5C 374.632,114.993 374.465,116.493 375.5,118C 374.256,118.456 373.423,117.956 373,116.5C 372.819,123.113 372.153,129.78 371,136.5C 370.667,134.167 370.333,131.833 370,129.5C 369.667,132.5 369.333,135.5 369,138.5C 368.333,139.167 367.667,139.833 367,140.5C 366.667,144.833 366.333,149.167 366,153.5C 365.667,149.833 365.333,146.167 365,142.5C 364.667,146.833 364.333,151.167 364,155.5C 360.183,158.137 358.516,161.804 359,166.5C 358.667,164.833 358.333,163.167 358,161.5C 357.667,163.833 357.333,166.167 357,168.5C 356.667,166.833 356.333,165.167 356,163.5C 355.667,165.833 355.333,168.167 355,170.5C 354.667,168.833 354.333,167.167 354,165.5C 353.899,168.7 353.232,171.7 352,174.5C 351.667,172.833 351.333,171.167 351,169.5C 348.907,172.044 347.907,175.044 348,178.5C 347.667,176.833 347.333,175.167 347,173.5C 346.667,175.833 346.333,178.167 346,180.5C 345.667,178.833 345.333,177.167 345,175.5C 343.333,177.167 341.667,178.833 340,180.5C 339.667,176.833 339.333,173.167 339,169.5C 338.667,173.833 338.333,178.167 338,182.5C 337.667,179.167 337.333,175.833 337,172.5C 312.183,197.214 289.016,223.214 267.5,250.5 Z"/></g>
<g><path style="opacity:0.992" fill="#9bce45" d="M 317.5,82.5 C 321.715,84.4364 326.381,85.1031 331.5,84.5C 331.5,85.8333 331.5,87.1667 331.5,88.5C 329.823,94.8531 326.823,100.52 322.5,105.5C 305.341,104.503 288.008,104.17 270.5,104.5C 270.283,101.579 270.949,98.9128 272.5,96.5C 275.445,95.5325 278.445,95.3658 281.5,96C 284.534,98.5164 287.868,100.516 291.5,102C 301.679,104.075 309.012,100.575 313.5,91.5C 315.224,88.6552 316.558,85.6552 317.5,82.5 Z"/></g>
<g><path style="opacity:1" fill="#4a4948" d="M 128.5,99.5 C 129.167,100.167 129.833,100.833 130.5,101.5C 133.563,107.952 137.397,113.952 142,119.5C 145.336,124.002 149.169,128.002 153.5,131.5C 154.833,133.167 156.167,134.833 157.5,136.5C 147.603,139.398 139.27,144.731 132.5,152.5C 132.861,142.251 132.195,132.085 130.5,122C 130.96,120.699 131.294,119.366 131.5,118C 129.726,111.981 128.726,105.814 128.5,99.5 Z"/></g>
<g><path style="opacity:1" fill="#2f2e2f" d="M 406.5,71.5 C 412.551,87.826 415.551,104.826 415.5,122.5C 416.201,149.655 409.868,174.989 396.5,198.5C 395.834,192.676 395.5,186.676 395.5,180.5C 396.054,160.168 396.554,139.835 397,119.5C 398.189,109.488 399.356,99.9878 400.5,91C 399.769,88.4054 398.102,86.7387 395.5,86C 395.833,85.6667 396.167,85.3333 396.5,85C 394.919,84.2935 393.419,83.4601 392,82.5C 390.16,83.8331 389.66,83.6665 390.5,82C 387.962,81.1328 385.962,81.7995 384.5,84C 389.149,102.568 390.649,121.401 389,140.5C 387.61,158.843 381.776,175.509 371.5,190.5C 363.536,200.655 353.536,208.155 341.5,213C 331.271,220.853 327.938,231.02 331.5,243.5C 324.861,250.474 318.194,257.474 311.5,264.5C 297.852,256.327 283.185,251.66 267.5,250.5C 289.016,223.214 312.183,197.214 337,172.5C 337.333,175.833 337.667,179.167 338,182.5C 338.333,178.167 338.667,173.833 339,169.5C 339.333,173.167 339.667,176.833 340,180.5C 341.667,178.833 343.333,177.167 345,175.5C 345.333,177.167 345.667,178.833 346,180.5C 346.333,178.167 346.667,175.833 347,173.5C 347.333,175.167 347.667,176.833 348,178.5C 347.907,175.044 348.907,172.044 351,169.5C 351.333,171.167 351.667,172.833 352,174.5C 353.232,171.7 353.899,168.7 354,165.5C 354.333,167.167 354.667,168.833 355,170.5C 355.333,168.167 355.667,165.833 356,163.5C 356.333,165.167 356.667,166.833 357,168.5C 357.333,166.167 357.667,163.833 358,161.5C 358.333,163.167 358.667,164.833 359,166.5C 358.516,161.804 360.183,158.137 364,155.5C 364.333,151.167 364.667,146.833 365,142.5C 365.333,146.167 365.667,149.833 366,153.5C 366.333,149.167 366.667,144.833 367,140.5C 367.667,139.833 368.333,139.167 369,138.5C 369.333,135.5 369.667,132.5 370,129.5C 370.333,131.833 370.667,134.167 371,136.5C 372.153,129.78 372.819,123.113 373,116.5C 373.423,117.956 374.256,118.456 375.5,118C 374.465,116.493 374.632,114.993 376,113.5C 376.667,114.833 377.333,114.833 378,113.5C 378.167,112.5 378.333,111.5 378.5,110.5C 377.932,108.796 377.932,107.296 378.5,106C 376.383,104.269 374.883,102.102 374,99.5C 372.853,100.458 371.853,100.125 371,98.5C 370.333,101.167 369.667,101.167 369,98.5C 368.646,100.807 367.646,101.141 366,99.5C 363.895,100.773 361.895,101.773 360,102.5C 359.055,102.095 358.388,101.428 358,100.5C 351.25,104.792 344.417,108.959 337.5,113C 337.833,113.333 338.167,113.667 338.5,114C 336,115.987 333.333,117.821 330.5,119.5C 326.767,117.711 324.767,114.711 324.5,110.5C 338.229,103.044 351.562,95.5439 364.5,88C 369.51,86.3259 374.51,84.4926 379.5,82.5C 380.478,82.9767 381.311,83.6433 382,84.5C 382.374,83.5838 382.874,82.7504 383.5,82C 382,79.3787 381.666,76.712 382.5,74C 386.305,73.039 390.138,72.2056 394,71.5C 395.326,71.7549 396.326,72.4216 397,73.5C 397.333,72.8333 397.667,72.1667 398,71.5C 400.071,72.5248 402.238,73.3581 404.5,74C 403.304,74.6543 403.304,75.1543 404.5,75.5C 406.111,74.6798 406.778,73.3464 406.5,71.5 Z"/></g>
<g><path style="opacity:0.997" fill="#479b36" d="M 454.5,106.5 C 453.372,111.884 452.039,117.218 450.5,122.5C 444.062,129.541 436.729,135.374 428.5,140C 428.833,140.333 429.167,140.667 429.5,141C 424.272,143.873 419.439,147.373 415,151.5C 416.47,158.409 418.637,165.076 421.5,171.5C 422.092,174.127 422.425,176.794 422.5,179.5C 414.521,187.145 406.521,194.812 398.5,202.5C 396.578,203.711 394.745,205.044 393,206.5C 392.601,206.272 392.435,205.938 392.5,205.5C 393.806,203.184 395.139,200.85 396.5,198.5C 409.868,174.989 416.201,149.655 415.5,122.5C 423.47,116.843 431.803,111.677 440.5,107C 445.277,105.412 449.943,105.245 454.5,106.5 Z"/></g>
<g><path style="opacity:0.977" fill="#8fc435" d="M 270.5,104.5 C 288.008,104.17 305.341,104.503 322.5,105.5C 322.5,105.833 322.5,106.167 322.5,106.5C 316.033,112.9 308.366,116.9 299.5,118.5C 291.146,118.658 283.479,116.492 276.5,112C 273.882,109.894 271.882,107.394 270.5,104.5 Z"/></g>
<g><path style="opacity:0.986" fill="#97cb3f" d="M 236.5,81.5 C 236.5,83.8333 236.5,86.1667 236.5,88.5C 241.167,88.5 245.833,88.5 250.5,88.5C 250.198,91.0593 250.532,93.3926 251.5,95.5C 251.622,102.319 253.455,108.652 257,114.5C 262.965,122.299 269.465,129.632 276.5,136.5C 271.898,139.609 266.898,141.943 261.5,143.5C 256.669,138.837 251.669,134.337 246.5,130C 236.988,125.151 227.655,125.484 218.5,131C 211.615,139.056 202.948,143.89 192.5,145.5C 191.5,145.5 190.5,145.5 189.5,145.5C 185.5,145.5 181.5,145.5 177.5,145.5C 175.5,145.167 173.5,144.833 171.5,144.5C 170.07,143.463 168.403,142.796 166.5,142.5C 163.709,140.265 160.709,138.265 157.5,136.5C 156.167,134.833 154.833,133.167 153.5,131.5C 153.611,130.883 153.944,130.383 154.5,130C 159.877,129.304 165.21,128.47 170.5,127.5C 177.599,130.596 184.932,131.262 192.5,129.5C 199.819,125.17 206.819,120.337 213.5,115C 221.181,111.83 229.181,109.997 237.5,109.5C 236.174,104.868 235.174,100.202 234.5,95.5C 235.167,90.8333 235.833,86.1667 236.5,81.5 Z"/></g>
<g><path style="opacity:0.995" fill="#298d3f" d="M 454.5,106.5 C 459.809,107.296 463.975,109.962 467,114.5C 471.02,120.539 474.52,126.872 477.5,133.5C 475.168,135.746 473.335,138.413 472,141.5C 471.667,141.167 471.333,140.833 471,140.5C 470,142.5 469,144.5 468,146.5C 463.802,144.761 459.636,142.261 455.5,139C 455.833,138.667 456.167,138.333 456.5,138C 454.328,135.83 452.328,133.497 450.5,131C 451.412,129.375 450.745,128.541 448.5,128.5C 449.363,126.579 450.029,124.579 450.5,122.5C 452.039,117.218 453.372,111.884 454.5,106.5 Z"/></g>
<g><path style="opacity:1" fill="#a1d44d" d="M 145.5,98.5 C 151.372,107.712 158.372,116.045 166.5,123.5C 167.833,124.833 169.167,126.167 170.5,127.5C 165.21,128.47 159.877,129.304 154.5,130C 153.944,130.383 153.611,130.883 153.5,131.5C 149.169,128.002 145.336,124.002 142,119.5C 137.397,113.952 133.563,107.952 130.5,101.5C 134.363,101.538 138.196,101.205 142,100.5C 143.681,100.392 144.848,99.7251 145.5,98.5 Z"/></g>
<g><path style="opacity:1" fill="#35923b" d="M 450.5,122.5 C 450.029,124.579 449.363,126.579 448.5,128.5C 445.815,139.907 442.815,151.241 439.5,162.5C 435.32,165.704 430.487,168.704 425,171.5C 423.855,170.316 422.688,170.316 421.5,171.5C 418.637,165.076 416.47,158.409 415,151.5C 419.439,147.373 424.272,143.873 429.5,141C 429.167,140.667 428.833,140.333 428.5,140C 436.729,135.374 444.062,129.541 450.5,122.5 Z"/></g>
<g><path style="opacity:0.998" fill="#535353" d="M 108.5,140.5 C 108.5,198.833 108.5,257.167 108.5,315.5C 100.285,313.03 91.9515,311.03 83.5,309.5C 83.5,262.833 83.5,216.167 83.5,169.5C 92.0698,160.02 100.403,150.353 108.5,140.5 Z"/></g>
<g><path style="opacity:0.977" fill="#81b72a" d="M 276.5,136.5 C 279.167,138.5 281.5,140.833 283.5,143.5C 279.118,146.548 275.452,150.215 272.5,154.5C 268.5,151.167 264.833,147.5 261.5,143.5C 266.898,141.943 271.898,139.609 276.5,136.5 Z"/></g>
<g><path style="opacity:1" fill="#59a430" d="M 166.5,142.5 C 168.403,142.796 170.07,143.463 171.5,144.5C 157.393,152.056 143.393,159.889 129.5,168C 127.537,168.844 126.204,168.344 125.5,166.5C 125.707,163.759 126.707,161.426 128.5,159.5C 128.787,161.121 129.787,162.121 131.5,162.5C 143.031,155.569 154.698,148.902 166.5,142.5 Z"/></g>
<g><path style="opacity:0.984" fill="#4a4a4a" d="M 209.5,191.5 C 230.503,191.667 251.503,191.5 272.5,191C 281.33,188.76 288.663,184.26 294.5,177.5C 299.248,173.286 301.914,167.953 302.5,161.5C 305.498,150.879 305.831,140.212 303.5,129.5C 305.068,130.473 306.735,130.64 308.5,130C 314.455,126.106 320.622,122.606 327,119.5C 328.125,122.784 329.125,126.117 330,129.5C 330.667,138.5 330.667,147.5 330,156.5C 324.885,189.611 306.052,209.778 273.5,217C 253.469,217.797 233.469,217.631 213.5,216.5C 213.5,208.5 213.5,200.5 213.5,192.5C 211.901,192.768 210.568,192.434 209.5,191.5 Z"/></g>
<g><path style="opacity:0.999" fill="#1f8742" d="M 448.5,128.5 C 450.745,128.541 451.412,129.375 450.5,131C 452.328,133.497 454.328,135.83 456.5,138C 456.167,138.333 455.833,138.667 455.5,139C 459.636,142.261 463.802,144.761 468,146.5C 469,144.5 470,142.5 471,140.5C 471.333,140.833 471.667,141.167 472,141.5C 473.335,138.413 475.168,135.746 477.5,133.5C 481.954,142.528 485.62,151.862 488.5,161.5C 482.535,179.567 474.701,197.567 465,215.5C 461.026,216.093 458.859,218.427 458.5,222.5C 454.639,223.598 454.639,224.431 458.5,225C 457.428,226.284 456.095,226.617 454.5,226C 455.328,226.915 456.328,227.581 457.5,228C 455.782,228.346 454.115,228.846 452.5,229.5C 452.167,228.833 451.833,228.167 451.5,227.5C 450.833,228.167 450.167,228.833 449.5,229.5C 446.204,229.013 443.204,227.846 440.5,226C 440.833,225.667 441.167,225.333 441.5,225C 440.062,224.781 438.729,224.281 437.5,223.5C 440.131,221.995 439.797,221.329 436.5,221.5C 436.617,219.516 435.95,217.85 434.5,216.5C 437.344,215.803 437.011,214.636 433.5,213C 434.167,212.667 434.833,212.333 435.5,212C 434.167,210.333 434.167,208.667 435.5,207C 434.552,206.517 433.552,206.351 432.5,206.5C 434.947,198.294 439.447,191.294 446,185.5C 446.551,183.647 445.885,182.313 444,181.5C 440.281,185.693 437.448,185.026 435.5,179.5C 433.604,185.149 431.77,190.816 430,196.5C 428.701,196.034 427.201,196.034 425.5,196.5C 425.231,190.66 424.231,184.993 422.5,179.5C 422.425,176.794 422.092,174.127 421.5,171.5C 422.688,170.316 423.855,170.316 425,171.5C 430.487,168.704 435.32,165.704 439.5,162.5C 442.815,151.241 445.815,139.907 448.5,128.5 Z"/></g>
<g><path style="opacity:1" fill="#479c36" d="M 171.5,144.5 C 173.5,144.833 175.5,145.167 177.5,145.5C 170.668,150.084 163.668,154.417 156.5,158.5C 145.633,164.766 134.633,170.766 123.5,176.5C 123.336,173.813 123.503,171.146 124,168.5C 124.278,167.584 124.778,166.918 125.5,166.5C 126.204,168.344 127.537,168.844 129.5,168C 143.393,159.889 157.393,152.056 171.5,144.5 Z"/></g>
<g><path style="opacity:1" fill="#6aac2b" d="M 157.5,136.5 C 160.709,138.265 163.709,140.265 166.5,142.5C 154.698,148.902 143.031,155.569 131.5,162.5C 129.787,162.121 128.787,161.121 128.5,159.5C 129.833,157.167 131.167,154.833 132.5,152.5C 139.27,144.731 147.603,139.398 157.5,136.5 Z"/></g>
<g><path style="opacity:1" fill="#258a41" d="M 177.5,145.5 C 181.5,145.5 185.5,145.5 189.5,145.5C 188.871,148.397 187.871,151.064 186.5,153.5C 174.63,160.355 162.797,167.355 151,174.5C 150.147,172.875 149.147,172.542 148,173.5C 147.966,171.82 147.799,170.32 147.5,169C 150.936,165.443 154.603,162.109 158.5,159C 157.906,158.536 157.239,158.369 156.5,158.5C 163.668,154.417 170.668,150.084 177.5,145.5 Z"/></g>
<g><path style="opacity:1" fill="#5c9d2a" d="M 283.5,143.5 C 287.5,146.833 291.167,150.5 294.5,154.5C 289.603,155.871 285.603,158.704 282.5,163C 283.252,163.671 283.586,164.504 283.5,165.5C 279.5,162.167 275.833,158.5 272.5,154.5C 275.452,150.215 279.118,146.548 283.5,143.5 Z"/></g>
<g><path style="opacity:1" fill="#0f6b3f" d="M 298.5,158.5 C 299.833,159.5 301.167,160.5 302.5,161.5C 301.914,167.953 299.248,173.286 294.5,177.5C 293.167,175.833 291.833,174.167 290.5,172.5C 289.316,170.146 289.482,167.813 291,165.5C 293.37,162.961 295.87,160.628 298.5,158.5 Z"/></g>
<g><path style="opacity:1" fill="#157c49" d="M 182.5,160.5 C 178.093,167.243 172.426,172.576 165.5,176.5C 159.955,178.626 154.288,180.459 148.5,182C 143.98,182.814 139.646,182.647 135.5,181.5C 139.182,181.665 142.848,181.499 146.5,181C 158.392,173.89 170.392,167.057 182.5,160.5 Z"/></g>
<g><path style="opacity:1" fill="#1b8343" d="M 186.5,153.5 C 185.416,156.004 184.083,158.337 182.5,160.5C 170.392,167.057 158.392,173.89 146.5,181C 142.848,181.499 139.182,181.665 135.5,181.5C 133.379,181.675 131.379,181.341 129.5,180.5C 126.708,180.378 124.708,179.044 123.5,176.5C 134.633,170.766 145.633,164.766 156.5,158.5C 157.239,158.369 157.906,158.536 158.5,159C 154.603,162.109 150.936,165.443 147.5,169C 147.799,170.32 147.966,171.82 148,173.5C 149.147,172.542 150.147,172.875 151,174.5C 162.797,167.355 174.63,160.355 186.5,153.5 Z"/></g>
<g><path style="opacity:1" fill="#2b7f36" d="M 294.5,154.5 C 296.167,155.5 297.5,156.833 298.5,158.5C 295.87,160.628 293.37,162.961 291,165.5C 289.482,167.813 289.316,170.146 290.5,172.5C 287.833,170.5 285.5,168.167 283.5,165.5C 283.586,164.504 283.252,163.671 282.5,163C 285.603,158.704 289.603,155.871 294.5,154.5 Z"/></g>
<g><path style="opacity:1" fill="#4e4e4e" d="M 189.5,145.5 C 190.5,145.5 191.5,145.5 192.5,145.5C 192.5,160.833 192.5,176.167 192.5,191.5C 192.5,191.833 192.5,192.167 192.5,192.5C 191.667,234.665 191.167,276.998 191,319.5C 183.302,328.693 175.468,337.693 167.5,346.5C 167.667,290.166 167.5,233.832 167,177.5C 166.617,176.944 166.117,176.611 165.5,176.5C 172.426,172.576 178.093,167.243 182.5,160.5C 184.083,158.337 185.416,156.004 186.5,153.5C 187.871,151.064 188.871,148.397 189.5,145.5 Z"/></g>
<g><path style="opacity:1" fill="#424142" d="M 165.5,176.5 C 166.117,176.611 166.617,176.944 167,177.5C 167.5,233.832 167.667,290.166 167.5,346.5C 167.5,351.5 167.5,356.5 167.5,361.5C 166.5,361.167 165.833,360.5 165.5,359.5C 166.498,333.339 166.831,307.005 166.5,280.5C 166.667,259.831 166.5,239.164 166,218.5C 156.969,227.196 148.303,236.196 140,245.5C 139.667,242.833 139.333,240.167 139,237.5C 138.667,240.833 138.333,244.167 138,247.5C 137.333,248.167 136.667,248.833 136,249.5C 135.667,244.833 135.333,240.167 135,235.5C 134.667,237.833 134.333,240.167 134,242.5C 133.667,235.167 133.333,227.833 133,220.5C 132.683,218.699 132.016,218.366 131,219.5C 130.744,216.443 130.244,213.443 129.5,210.5C 129.496,200.471 129.496,190.471 129.5,180.5C 131.379,181.341 133.379,181.675 135.5,181.5C 139.646,182.647 143.98,182.814 148.5,182C 154.288,180.459 159.955,178.626 165.5,176.5 Z"/></g>
<g><path style="opacity:0.997" fill="#0f8148" d="M 492.5,176.5 C 492.892,180.582 493.558,184.582 494.5,188.5C 493.219,190.626 491.886,192.793 490.5,195C 491.022,195.561 491.355,196.228 491.5,197C 486.959,206.419 482.959,216.086 479.5,226C 480.899,226.595 482.232,226.428 483.5,225.5C 484.11,228.301 483.776,231.135 482.5,234C 482.095,234.945 481.428,235.612 480.5,236C 481.022,236.561 481.355,237.228 481.5,238C 474.361,257.204 466.361,276.371 457.5,295.5C 457.667,295.833 457.833,296.167 458,296.5C 460.735,294.604 463.568,293.938 466.5,294.5C 464.322,302.878 461.989,311.211 459.5,319.5C 459.624,320.107 459.957,320.44 460.5,320.5C 457.535,325.43 453.869,329.763 449.5,333.5C 448.957,333.44 448.624,333.107 448.5,332.5C 451.654,321.55 454.654,310.55 457.5,299.5C 457.167,298.833 456.833,298.167 456.5,297.5C 452.714,298.893 449.048,300.559 445.5,302.5C 445.167,302 444.833,301.5 444.5,301C 445.928,298.865 447.262,296.698 448.5,294.5C 447.975,293.808 447.308,293.308 446.5,293C 453.366,281.81 459.866,269.643 466,256.5C 466.651,254.765 466.485,253.098 465.5,251.5C 466.5,250.833 467.5,250.167 468.5,249.5C 467.833,249.167 467.167,248.833 466.5,248.5C 469.753,246.975 471.087,244.642 470.5,241.5C 471.025,240.808 471.692,240.308 472.5,240C 472.5,238.333 472.5,236.667 472.5,235C 475.124,234.424 475.791,233.09 474.5,231C 475.167,230.667 475.833,230.333 476.5,230C 472.76,230.377 469.093,231.043 465.5,232C 471.822,221.485 477.655,209.985 483,197.5C 482.816,192.344 484.649,188.178 488.5,185C 489.447,182.812 489.447,180.478 488.5,178C 489.745,177.209 491.078,176.709 492.5,176.5 Z"/></g>
<g><path style="opacity:1" fill="#3d3b3c" d="M 119.5,89.5 C 120.568,88.5655 121.901,88.2322 123.5,88.5C 124.909,92.3163 126.576,95.9829 128.5,99.5C 128.726,105.814 129.726,111.981 131.5,118C 131.294,119.366 130.96,120.699 130.5,122C 132.195,132.085 132.861,142.251 132.5,152.5C 131.167,154.833 129.833,157.167 128.5,159.5C 126.707,161.426 125.707,163.759 125.5,166.5C 124.778,166.918 124.278,167.584 124,168.5C 123.503,171.146 123.336,173.813 123.5,176.5C 124.708,179.044 126.708,180.378 129.5,180.5C 129.496,190.471 129.496,200.471 129.5,210.5C 130.244,213.443 130.744,216.443 131,219.5C 132.016,218.366 132.683,218.699 133,220.5C 133.333,227.833 133.667,235.167 134,242.5C 134.333,240.167 134.667,237.833 135,235.5C 135.333,240.167 135.667,244.833 136,249.5C 136.667,248.833 137.333,248.167 138,247.5C 138.333,244.167 138.667,240.833 139,237.5C 139.333,240.167 139.667,242.833 140,245.5C 148.303,236.196 156.969,227.196 166,218.5C 166.5,239.164 166.667,259.831 166.5,280.5C 156.533,290.635 146.7,300.968 137,311.5C 136.667,314.5 136.333,317.5 136,320.5C 134.128,315.028 132.795,308.695 132,301.5C 131.333,302.167 130.667,302.833 130,303.5C 125.686,242.328 122.519,180.828 120.5,119C 122.07,108.952 121.737,99.1184 119.5,89.5 Z"/></g>
<g><path style="opacity:1" fill="#212021" d="M 192.5,192.5 C 194.167,192.5 195.833,192.5 197.5,192.5C 197.325,206.493 197.992,220.326 199.5,234C 197.726,257.01 197.06,280.176 197.5,303.5C 196.141,307.253 194.807,310.919 193.5,314.5C 192.501,274.003 192.168,233.337 192.5,192.5 Z"/></g>
<g><path style="opacity:1" fill="#414041" d="M 371.5,190.5 C 372.485,201.669 372.485,213.003 371.5,224.5C 370.055,226.063 368.389,227.396 366.5,228.5C 362.86,230.32 359.193,232.153 355.5,234C 360.526,236.181 365.526,238.348 370.5,240.5C 373.661,241.913 376.661,243.58 379.5,245.5C 381.795,246.475 383.795,247.808 385.5,249.5C 384.833,259.5 384.167,269.5 383.5,279.5C 378.661,275.499 373.661,271.666 368.5,268C 358.924,263.045 349.258,258.378 339.5,254C 336.449,250.701 333.782,247.201 331.5,243.5C 327.938,231.02 331.271,220.853 341.5,213C 353.536,208.155 363.536,200.655 371.5,190.5 Z"/></g>
<g><path style="opacity:0.993" fill="#087d4b" d="M 494.5,188.5 C 500.026,237.067 488.693,281.067 460.5,320.5C 459.957,320.44 459.624,320.107 459.5,319.5C 461.989,311.211 464.322,302.878 466.5,294.5C 463.568,293.938 460.735,294.604 458,296.5C 457.833,296.167 457.667,295.833 457.5,295.5C 466.361,276.371 474.361,257.204 481.5,238C 481.355,237.228 481.022,236.561 480.5,236C 481.428,235.612 482.095,234.945 482.5,234C 483.776,231.135 484.11,228.301 483.5,225.5C 482.232,226.428 480.899,226.595 479.5,226C 482.959,216.086 486.959,206.419 491.5,197C 491.355,196.228 491.022,195.561 490.5,195C 491.886,192.793 493.219,190.626 494.5,188.5 Z"/></g>
<g><path style="opacity:1" fill="#38933a" d="M 422.5,179.5 C 424.231,184.993 425.231,190.66 425.5,196.5C 425.663,201.547 425.329,206.547 424.5,211.5C 421.269,215.111 417.436,218.111 413,220.5C 412.667,220.167 412.333,219.833 412,219.5C 409.796,221.017 407.462,222.35 405,223.5C 404.667,223.167 404.333,222.833 404,222.5C 402.915,224.373 401.582,226.04 400,227.5C 398.667,224.833 397.333,224.833 396,227.5C 392.944,222.309 389.777,217.309 386.5,212.5C 388.273,209.94 390.273,207.607 392.5,205.5C 392.435,205.938 392.601,206.272 393,206.5C 394.745,205.044 396.578,203.711 398.5,202.5C 406.521,194.812 414.521,187.145 422.5,179.5 Z"/></g>
<g><path style="opacity:1" fill="#168245" d="M 488.5,161.5 C 489.681,166.56 491.015,171.56 492.5,176.5C 491.078,176.709 489.745,177.209 488.5,178C 489.447,180.478 489.447,182.812 488.5,185C 484.649,188.178 482.816,192.344 483,197.5C 477.655,209.985 471.822,221.485 465.5,232C 469.093,231.043 472.76,230.377 476.5,230C 475.833,230.333 475.167,230.667 474.5,231C 475.791,233.09 475.124,234.424 472.5,235C 472.5,236.667 472.5,238.333 472.5,240C 471.692,240.308 471.025,240.808 470.5,241.5C 471.087,244.642 469.753,246.975 466.5,248.5C 467.167,248.833 467.833,249.167 468.5,249.5C 467.5,250.167 466.5,250.833 465.5,251.5C 466.485,253.098 466.651,254.765 466,256.5C 459.866,269.643 453.366,281.81 446.5,293C 447.308,293.308 447.975,293.808 448.5,294.5C 447.262,296.698 445.928,298.865 444.5,301C 444.833,301.5 445.167,302 445.5,302.5C 449.048,300.559 452.714,298.893 456.5,297.5C 456.833,298.167 457.167,298.833 457.5,299.5C 454.654,310.55 451.654,321.55 448.5,332.5C 448.624,333.107 448.957,333.44 449.5,333.5C 443.458,341.876 436.124,348.876 427.5,354.5C 429.222,330.262 425.555,306.929 416.5,284.5C 415.808,281.103 415.808,277.77 416.5,274.5C 420.178,269.494 424.178,264.827 428.5,260.5C 428.511,262.017 429.177,263.184 430.5,264C 429.833,264.333 429.167,264.667 428.5,265C 429.849,265.772 430.682,266.939 431,268.5C 434.174,270.002 437.674,271.668 441.5,273.5C 442.098,274.795 442.598,276.128 443,277.5C 444.766,275.404 446.099,273.071 447,270.5C 447.317,272.301 447.984,272.634 449,271.5C 455.688,259.213 461.855,246.713 467.5,234C 466.5,233.333 465.5,233.333 464.5,234C 453.101,239.694 442.768,246.86 433.5,255.5C 431.269,254.079 429.269,252.246 427.5,250C 428.167,249.667 428.833,249.333 429.5,249C 426.119,246.242 422.452,244.076 418.5,242.5C 418.858,239.733 419.525,237.067 420.5,234.5C 422.351,226.912 423.685,219.245 424.5,211.5C 425.329,206.547 425.663,201.547 425.5,196.5C 427.201,196.034 428.701,196.034 430,196.5C 431.77,190.816 433.604,185.149 435.5,179.5C 437.448,185.026 440.281,185.693 444,181.5C 445.885,182.313 446.551,183.647 446,185.5C 439.447,191.294 434.947,198.294 432.5,206.5C 433.552,206.351 434.552,206.517 435.5,207C 434.167,208.667 434.167,210.333 435.5,212C 434.833,212.333 434.167,212.667 433.5,213C 437.011,214.636 437.344,215.803 434.5,216.5C 435.95,217.85 436.617,219.516 436.5,221.5C 439.797,221.329 440.131,221.995 437.5,223.5C 438.729,224.281 440.062,224.781 441.5,225C 441.167,225.333 440.833,225.667 440.5,226C 443.204,227.846 446.204,229.013 449.5,229.5C 450.167,228.833 450.833,228.167 451.5,227.5C 451.833,228.167 452.167,228.833 452.5,229.5C 454.115,228.846 455.782,228.346 457.5,228C 456.328,227.581 455.328,226.915 454.5,226C 456.095,226.617 457.428,226.284 458.5,225C 454.639,224.431 454.639,223.598 458.5,222.5C 458.859,218.427 461.026,216.093 465,215.5C 474.701,197.567 482.535,179.567 488.5,161.5 Z"/></g>
<g><path style="opacity:1" fill="#2c2b2c" d="M 197.5,192.5 C 199.833,192.5 202.167,192.5 204.5,192.5C 204.334,200.507 204.5,208.507 205,216.5C 206.356,217.38 207.856,217.714 209.5,217.5C 209.619,228.542 210.286,239.542 211.5,250.5C 209.194,250.993 206.861,251.326 204.5,251.5C 204.171,265.344 204.504,279.01 205.5,292.5C 202.577,296.027 199.91,299.694 197.5,303.5C 197.06,280.176 197.726,257.01 199.5,234C 197.992,220.326 197.325,206.493 197.5,192.5 Z"/></g>
<g><path style="opacity:1" fill="#318d3d" d="M 424.5,211.5 C 423.685,219.245 422.351,226.912 420.5,234.5C 414.222,237.551 407.722,240.217 401,242.5C 397.83,238.372 396.83,239.039 398,244.5C 399.065,248.53 400.232,252.53 401.5,256.5C 401.167,257.167 400.833,257.833 400.5,258.5C 395.733,251.751 391.233,244.751 387,237.5C 386.691,236.234 386.191,235.067 385.5,234C 385.833,233.667 386.167,233.333 386.5,233C 384.321,232.558 383.655,231.558 384.5,230C 381.419,227.186 379.753,223.686 379.5,219.5C 381.5,216.833 383.833,214.5 386.5,212.5C 389.777,217.309 392.944,222.309 396,227.5C 397.333,224.833 398.667,224.833 400,227.5C 401.582,226.04 402.915,224.373 404,222.5C 404.333,222.833 404.667,223.167 405,223.5C 407.462,222.35 409.796,221.017 412,219.5C 412.333,219.833 412.667,220.167 413,220.5C 417.436,218.111 421.269,215.111 424.5,211.5 Z"/></g>
<g><path style="opacity:1" fill="#176150" d="M 366.5,228.5 C 367.248,232.743 368.581,236.743 370.5,240.5C 365.526,238.348 360.526,236.181 355.5,234C 359.193,232.153 362.86,230.32 366.5,228.5 Z"/></g>
<g><path style="opacity:1" fill="#237149" d="M 371.5,224.5 C 371.833,224.5 372.167,224.5 372.5,224.5C 373.833,231.833 376.166,238.833 379.5,245.5C 376.661,243.58 373.661,241.913 370.5,240.5C 368.581,236.743 367.248,232.743 366.5,228.5C 368.389,227.396 370.055,226.063 371.5,224.5 Z"/></g>
<g><path style="opacity:1" fill="#1b8644" d="M 428.5,260.5 C 429.833,258.5 431.5,256.833 433.5,255.5C 442.768,246.86 453.101,239.694 464.5,234C 465.5,233.333 466.5,233.333 467.5,234C 461.855,246.713 455.688,259.213 449,271.5C 447.984,272.634 447.317,272.301 447,270.5C 446.099,273.071 444.766,275.404 443,277.5C 442.598,276.128 442.098,274.795 441.5,273.5C 437.674,271.668 434.174,270.002 431,268.5C 430.682,266.939 429.849,265.772 428.5,265C 429.167,264.667 429.833,264.333 430.5,264C 429.177,263.184 428.511,262.017 428.5,260.5 Z"/></g>
<g><path style="opacity:1" fill="#282828" d="M 331.5,243.5 C 333.782,247.201 336.449,250.701 339.5,254C 349.258,258.378 358.924,263.045 368.5,268C 373.661,271.666 378.661,275.499 383.5,279.5C 386.93,283.36 389.597,287.693 391.5,292.5C 390.279,302.491 388.779,312.491 387,322.5C 386.667,320.833 386.333,319.167 386,317.5C 384.727,321.358 383.727,325.358 383,329.5C 382.667,326.833 382.333,324.167 382,321.5C 381.612,325.219 380.945,328.886 380,332.5C 379.667,332.167 379.333,331.833 379,331.5C 377.333,333.833 375.667,336.167 374,338.5C 373.667,335.833 373.333,333.167 373,330.5C 372.74,334.25 372.073,337.916 371,341.5C 370.333,330.833 369.667,330.833 369,341.5C 368.667,339.833 368.333,338.167 368,336.5C 367.882,339.371 367.216,342.038 366,344.5C 365.667,342.833 365.333,341.167 365,339.5C 364.667,341.833 364.333,344.167 364,346.5C 363.667,344.833 363.333,343.167 363,341.5C 362.667,341.833 362.333,342.167 362,342.5C 361.667,338.833 361.333,335.167 361,331.5C 360.667,335.833 360.333,340.167 360,344.5C 359.667,344.833 359.333,345.167 359,345.5C 358.667,341.833 358.333,338.167 358,334.5C 357.667,338.833 357.333,343.167 357,347.5C 356,340.5 355,333.5 354,326.5C 353.667,330.833 353.333,335.167 353,339.5C 352.273,332.506 351.607,325.506 351,318.5C 350.667,322.833 350.333,327.167 350,331.5C 349.667,327.833 349.333,324.167 349,320.5C 348,321.5 347,322.5 346,323.5C 345.667,320.833 345.333,318.167 345,315.5C 344.499,320.508 343.999,325.508 343.5,330.5C 342.66,320.793 340.827,311.127 338,301.5C 335.857,294.548 332.691,288.214 328.5,282.5C 324.185,275.186 318.518,269.186 311.5,264.5C 318.194,257.474 324.861,250.474 331.5,243.5 Z"/></g>
<g><path style="opacity:1" fill="#268241" d="M 379.5,219.5 C 379.753,223.686 381.419,227.186 384.5,230C 383.655,231.558 384.321,232.558 386.5,233C 386.167,233.333 385.833,233.667 385.5,234C 386.191,235.067 386.691,236.234 387,237.5C 391.233,244.751 395.733,251.751 400.5,258.5C 400.833,257.833 401.167,257.167 401.5,256.5C 400.232,252.53 399.065,248.53 398,244.5C 396.83,239.039 397.83,238.372 401,242.5C 407.722,240.217 414.222,237.551 420.5,234.5C 419.525,237.067 418.858,239.733 418.5,242.5C 415.774,251.525 413.108,260.691 410.5,270C 410.164,271.03 409.497,271.53 408.5,271.5C 407.488,270.128 406.488,268.795 405.5,267.5C 399.754,260.418 393.087,254.418 385.5,249.5C 383.795,247.808 381.795,246.475 379.5,245.5C 376.166,238.833 373.833,231.833 372.5,224.5C 374.555,222.445 376.888,220.779 379.5,219.5 Z"/></g>
<g><path style="opacity:0.986" fill="#464646" d="M 267.5,250.5 C 283.185,251.66 297.852,256.327 311.5,264.5C 318.518,269.186 324.185,275.186 328.5,282.5C 324.376,289.814 319.209,296.48 313,302.5C 312.517,303.448 312.351,304.448 312.5,305.5C 305.708,290.216 294.041,281.049 277.5,278C 263.534,276.491 249.534,276.158 235.5,277C 226.194,278.324 217.86,281.824 210.5,287.5C 209.505,275.678 209.172,263.678 209.5,251.5C 228.806,250.55 248.14,250.217 267.5,250.5 Z"/></g>
<g><path style="opacity:1" fill="#0c7744" d="M 418.5,242.5 C 422.452,244.076 426.119,246.242 429.5,249C 428.833,249.333 428.167,249.667 427.5,250C 429.269,252.246 431.269,254.079 433.5,255.5C 431.5,256.833 429.833,258.5 428.5,260.5C 424.178,264.827 420.178,269.494 416.5,274.5C 415.808,277.77 415.808,281.103 416.5,284.5C 415.599,283.71 414.932,282.71 414.5,281.5C 412.898,277.905 410.898,274.571 408.5,271.5C 409.497,271.53 410.164,271.03 410.5,270C 413.108,260.691 415.774,251.525 418.5,242.5 Z"/></g>
<g><path style="opacity:1" fill="#302f30" d="M 385.5,249.5 C 393.087,254.418 399.754,260.418 405.5,267.5C 404.167,329.833 404.167,392.167 405.5,454.5C 396.114,471.552 382.781,484.552 365.5,493.5C 365.611,492.883 365.944,492.383 366.5,492C 364.22,491.788 362.22,490.955 360.5,489.5C 354.241,489.715 347.741,489.715 341,489.5C 340.085,488.672 339.419,487.672 339,486.5C 338.667,487.167 338.333,487.833 338,488.5C 327.083,486.699 315.916,485.866 304.5,486C 313.685,484.878 322.685,483.044 331.5,480.5C 333.842,481.008 336.009,482.008 338,483.5C 339.087,481.068 339.587,481.402 339.5,484.5C 346.759,484.128 353.259,484.128 359,484.5C 361.312,484.045 363.312,483.045 365,481.5C 365.333,482.167 365.667,482.833 366,483.5C 368.038,481.928 370.371,480.928 373,480.5C 374.147,481.458 375.147,481.125 376,479.5C 377.147,480.458 378.147,480.125 379,478.5C 379.333,478.833 379.667,479.167 380,479.5C 382.449,477.537 384.449,475.204 386,472.5C 386.667,473.833 387.333,473.833 388,472.5C 391.569,466.962 394.069,460.962 395.5,454.5C 395.793,442.502 395.46,430.502 394.5,418.5C 402.093,390.007 404.593,361.007 402,331.5C 400.847,322.404 399.181,313.404 397,304.5C 395.628,300.186 393.795,296.186 391.5,292.5C 389.597,287.693 386.93,283.36 383.5,279.5C 384.167,269.5 384.833,259.5 385.5,249.5 Z"/></g>
<g><path style="opacity:1" fill="#292929" d="M 405.5,267.5 C 406.488,268.795 407.488,270.128 408.5,271.5C 410.898,274.571 412.898,277.905 414.5,281.5C 413.167,333.167 413.167,384.833 414.5,436.5C 412.54,443.086 409.54,449.086 405.5,454.5C 404.167,392.167 404.167,329.833 405.5,267.5 Z"/></g>
<g><path style="opacity:1" fill="#222222" d="M 414.5,281.5 C 414.932,282.71 415.599,283.71 416.5,284.5C 425.555,306.929 429.222,330.262 427.5,354.5C 428.625,377.581 426.125,400.247 420,422.5C 418.629,427.464 416.796,432.131 414.5,436.5C 413.167,384.833 413.167,333.167 414.5,281.5 Z"/></g>
<g><path style="opacity:0.987" fill="#434343" d="M 328.5,282.5 C 332.691,288.214 335.857,294.548 338,301.5C 340.827,311.127 342.66,320.793 343.5,330.5C 344.582,349.451 342.915,368.117 338.5,386.5C 327.42,420.897 303.754,439.23 267.5,441.5C 257.167,441.5 246.833,441.5 236.5,441.5C 230.439,441.79 224.439,441.457 218.5,440.5C 217.503,432.862 217.169,425.196 217.5,417.5C 218.167,416.833 218.833,416.167 219.5,415.5C 220.167,415.5 220.833,415.5 221.5,415.5C 238.503,415.667 255.503,415.5 272.5,415C 291.418,412.735 304.585,402.901 312,385.5C 316.493,372.885 318.326,359.885 317.5,346.5C 318.165,343.686 318.498,340.686 318.5,337.5C 318.646,332.576 317.979,327.909 316.5,323.5C 316.5,323.167 316.5,322.833 316.5,322.5C 315.324,316.796 313.991,311.13 312.5,305.5C 312.351,304.448 312.517,303.448 313,302.5C 319.209,296.48 324.376,289.814 328.5,282.5 Z"/></g>
<g><path style="opacity:1" fill="#373636" d="M 114.5,90.5 C 115.919,89.5489 117.585,89.2155 119.5,89.5C 121.737,99.1184 122.07,108.952 120.5,119C 122.519,180.828 125.686,242.328 130,303.5C 130.667,302.833 131.333,302.167 132,301.5C 132.795,308.695 134.128,315.028 136,320.5C 136.333,317.5 136.667,314.5 137,311.5C 146.7,300.968 156.533,290.635 166.5,280.5C 166.831,307.005 166.498,333.339 165.5,359.5C 159.563,351.895 152.897,344.895 145.5,338.5C 144.738,336.738 143.404,335.738 141.5,335.5C 135.853,330.677 129.853,326.343 123.5,322.5C 122.882,308.491 122.048,294.491 121,280.5C 119.462,217.12 118.295,153.786 117.5,90.5C 116.5,90.5 115.5,90.5 114.5,90.5 Z"/></g>
<g><path style="opacity:0.98" fill="#a3d64e" d="M 284.5,301.5 C 280.874,306.461 276.874,311.128 272.5,315.5C 260.534,315.978 251.534,321.311 245.5,331.5C 244.5,331.833 243.833,332.5 243.5,333.5C 242.559,335.05 241.893,336.716 241.5,338.5C 240.659,340.379 240.325,342.379 240.5,344.5C 239.686,346.631 239.186,348.964 239,351.5C 234.935,355.395 231.102,359.395 227.5,363.5C 220.288,336.091 229.288,315.924 254.5,303C 264.483,299.117 274.483,298.617 284.5,301.5 Z"/></g>
<g><path style="opacity:0.962" fill="#93c83c" d="M 284.5,301.5 C 291.786,302.645 298.119,305.645 303.5,310.5C 301.807,311.475 300.307,312.808 299,314.5C 296.94,317.286 295.44,320.286 294.5,323.5C 288.025,318.601 280.692,315.935 272.5,315.5C 276.874,311.128 280.874,306.461 284.5,301.5 Z"/></g>
<g><path style="opacity:1" fill="#242324" d="M 391.5,292.5 C 393.795,296.186 395.628,300.186 397,304.5C 399.181,313.404 400.847,322.404 402,331.5C 404.593,361.007 402.093,390.007 394.5,418.5C 384.076,449.924 363.076,470.591 331.5,480.5C 322.685,483.044 313.685,484.878 304.5,486C 315.916,485.866 327.083,486.699 338,488.5C 338.333,487.833 338.667,487.167 339,486.5C 339.419,487.672 340.085,488.672 341,489.5C 347.741,489.715 354.241,489.715 360.5,489.5C 362.22,490.955 364.22,491.788 366.5,492C 365.944,492.383 365.611,492.883 365.5,493.5C 360.919,496.622 355.919,498.956 350.5,500.5C 349.48,499.046 348.313,498.713 347,499.5C 346.5,499 346,498.5 345.5,498C 342.5,497.667 339.5,497.333 336.5,497C 298.5,496.667 260.5,496.333 222.5,496C 212.678,495.95 203.012,494.783 193.5,492.5C 192.738,493.628 192.071,494.795 191.5,496C 158.151,495.839 125.151,496.672 92.5,498.5C 91.1667,497.833 90.1667,496.833 89.5,495.5C 89.5858,494.504 89.2524,493.671 88.5,493C 122.85,492.76 157.183,491.927 191.5,490.5C 192.268,486.555 192.768,482.555 193,478.5C 200.664,480.743 207.664,483.076 214,485.5C 217.782,485.063 221.449,485.063 225,485.5C 230.093,484.645 234.926,482.979 239.5,480.5C 241.577,479.012 242.577,477.012 242.5,474.5C 243.552,474.649 244.552,474.483 245.5,474C 245.167,473.667 244.833,473.333 244.5,473C 245.611,471.359 247.611,470.025 250.5,469C 249.167,468.333 249.167,467.667 250.5,467C 242.833,466.187 243.166,465.521 251.5,465C 248.527,463.871 245.527,463.037 242.5,462.5C 242.162,459.989 242.162,457.655 242.5,455.5C 240.195,454.769 238.362,453.436 237,451.5C 236.502,448.183 236.335,444.85 236.5,441.5C 246.833,441.5 257.167,441.5 267.5,441.5C 265.038,444.464 262.371,447.297 259.5,450C 261.5,450.333 263.5,450.667 265.5,451C 264.833,451.667 264.167,452.333 263.5,453C 267.5,453.333 271.5,453.667 275.5,454C 275.167,454.333 274.833,454.667 274.5,455C 278.167,455.333 281.833,455.667 285.5,456C 285.167,456.333 284.833,456.667 284.5,457C 287.833,457.333 291.167,457.667 294.5,458C 294.167,458.333 293.833,458.667 293.5,459C 308.965,460.066 324.298,459.566 339.5,457.5C 339.5,456.5 339.5,455.5 339.5,454.5C 341.201,454.034 342.701,454.034 344,454.5C 346.642,452.762 349.476,451.429 352.5,450.5C 352.667,432.83 352.5,415.164 352,397.5C 351.333,398.167 350.667,398.833 350,399.5C 349.667,395.833 349.333,392.167 349,388.5C 347.615,389.551 346.615,390.884 346,392.5C 345.667,388.833 345.333,385.167 345,381.5C 343.223,383.79 341.056,385.457 338.5,386.5C 342.915,368.117 344.582,349.451 343.5,330.5C 343.999,325.508 344.499,320.508 345,315.5C 345.333,318.167 345.667,320.833 346,323.5C 347,322.5 348,321.5 349,320.5C 349.333,324.167 349.667,327.833 350,331.5C 350.333,327.167 350.667,322.833 351,318.5C 351.607,325.506 352.273,332.506 353,339.5C 353.333,335.167 353.667,330.833 354,326.5C 355,333.5 356,340.5 357,347.5C 357.333,343.167 357.667,338.833 358,334.5C 358.333,338.167 358.667,341.833 359,345.5C 359.333,345.167 359.667,344.833 360,344.5C 360.333,340.167 360.667,335.833 361,331.5C 361.333,335.167 361.667,338.833 362,342.5C 362.333,342.167 362.667,341.833 363,341.5C 363.333,343.167 363.667,344.833 364,346.5C 364.333,344.167 364.667,341.833 365,339.5C 365.333,341.167 365.667,342.833 366,344.5C 367.216,342.038 367.882,339.371 368,336.5C 368.333,338.167 368.667,339.833 369,341.5C 369.667,330.833 370.333,330.833 371,341.5C 372.073,337.916 372.74,334.25 373,330.5C 373.333,333.167 373.667,335.833 374,338.5C 375.667,336.167 377.333,333.833 379,331.5C 379.333,331.833 379.667,332.167 380,332.5C 380.945,328.886 381.612,325.219 382,321.5C 382.333,324.167 382.667,326.833 383,329.5C 383.727,325.358 384.727,321.358 386,317.5C 386.333,319.167 386.667,320.833 387,322.5C 388.779,312.491 390.279,302.491 391.5,292.5 Z"/></g>
<g><path style="opacity:0.998" fill="#9ed14b" d="M 55.5,307.5 C 55.6604,314.574 58.827,319.574 65,322.5C 67.1841,323.108 69.1841,322.441 71,320.5C 72.4823,322.781 74.149,322.781 76,320.5C 77.9033,320.694 79.7367,320.694 81.5,320.5C 82.8333,321.167 84.1667,321.833 85.5,322.5C 89.1775,322.27 92.6775,320.936 96,318.5C 97.1475,319.458 98.1475,319.125 99,317.5C 100,318.5 101,319.5 102,320.5C 103.112,326.89 104.279,333.223 105.5,339.5C 101.979,341.199 98.6456,343.366 95.5,346C 92.16,346.164 89.66,347.664 88,350.5C 86.8525,349.542 85.8525,349.875 85,351.5C 84.6667,351.167 84.3333,350.833 84,350.5C 82.238,352.262 80.4047,352.928 78.5,352.5C 75.1518,349.149 72.1518,345.482 69.5,341.5C 67.3034,337.611 64.9701,333.778 62.5,330C 59.5377,329.91 57.2043,331.243 55.5,334C 53.4404,335.696 51.1071,336.863 48.5,337.5C 38.4829,332.159 28.4829,326.825 18.5,321.5C 18.5,320.833 18.1667,320.5 17.5,320.5C 19.2055,316.621 22.2055,314.121 26.5,313C 36.0252,310.302 45.6919,308.469 55.5,307.5 Z"/></g>
<g><path style="opacity:1" fill="#71ad2f" d="M 303.5,310.5 C 305.833,312.167 307.833,314.167 309.5,316.5C 304.302,318.87 300.968,322.87 299.5,328.5C 297.5,327.167 295.833,325.5 294.5,323.5C 295.44,320.286 296.94,317.286 299,314.5C 300.307,312.808 301.807,311.475 303.5,310.5 Z"/></g>
<g><path style="opacity:0.976" fill="#474747" d="M 192.5,192.5 C 192.168,233.337 192.501,274.003 193.5,314.5C 192.538,345.479 192.205,376.479 192.5,407.5C 190.5,407.5 188.5,407.5 186.5,407.5C 182.896,390.97 176.563,375.636 167.5,361.5C 167.5,356.5 167.5,351.5 167.5,346.5C 175.468,337.693 183.302,328.693 191,319.5C 191.167,276.998 191.667,234.665 192.5,192.5 Z"/></g>
<g><path style="opacity:1" fill="#adde5c" d="M 55.5,307.5 C 64.9546,307.21 74.288,307.876 83.5,309.5C 91.9515,311.03 100.285,313.03 108.5,315.5C 109.78,316.931 111.447,317.598 113.5,317.5C 114.514,318.674 115.847,319.34 117.5,319.5C 119.181,321.008 121.181,322.008 123.5,322.5C 129.853,326.343 135.853,330.677 141.5,335.5C 141.579,336.93 141.246,338.264 140.5,339.5C 133.699,343.362 126.866,346.029 120,347.5C 117.703,347.461 115.37,347.128 113,346.5C 111.512,348.83 109.679,349.164 107.5,347.5C 106.833,344.833 106.167,342.167 105.5,339.5C 104.279,333.223 103.112,326.89 102,320.5C 101,319.5 100,318.5 99,317.5C 98.1475,319.125 97.1475,319.458 96,318.5C 92.6775,320.936 89.1775,322.27 85.5,322.5C 84.1667,321.833 82.8333,321.167 81.5,320.5C 79.7367,320.694 77.9033,320.694 76,320.5C 74.149,322.781 72.4823,322.781 71,320.5C 69.1841,322.441 67.1841,323.108 65,322.5C 58.827,319.574 55.6604,314.574 55.5,307.5 Z"/></g>
<g><path style="opacity:1" fill="#348536" d="M 312.5,319.5 C 313.833,320.5 315.167,321.5 316.5,322.5C 316.5,322.833 316.5,323.167 316.5,323.5C 314.037,326.359 311.537,329.359 309,332.5C 308.506,334.134 308.34,335.801 308.5,337.5C 306.5,336.167 304.833,334.5 303.5,332.5C 304.516,328.135 306.349,324.135 309,320.5C 310.011,319.663 311.178,319.33 312.5,319.5 Z"/></g>
<g><path style="opacity:1" fill="#106c3f" d="M 316.5,323.5 C 317.979,327.909 318.646,332.576 318.5,337.5C 318.498,340.686 318.165,343.686 317.5,346.5C 314.167,343.833 311.167,340.833 308.5,337.5C 308.34,335.801 308.506,334.134 309,332.5C 311.537,329.359 314.037,326.359 316.5,323.5 Z"/></g>
<g><path style="opacity:1" fill="#539830" d="M 309.5,316.5 C 310.833,317.167 311.833,318.167 312.5,319.5C 311.178,319.33 310.011,319.663 309,320.5C 306.349,324.135 304.516,328.135 303.5,332.5C 301.833,331.5 300.5,330.167 299.5,328.5C 300.968,322.87 304.302,318.87 309.5,316.5 Z"/></g>
<g><path style="opacity:1" fill="#72b128" d="M 245.5,331.5 C 263.32,332.406 277.32,340.073 287.5,354.5C 282.643,351.486 277.309,349.653 271.5,349C 268.109,347.311 265.109,345.144 262.5,342.5C 256.034,339.767 249.701,336.767 243.5,333.5C 243.833,332.5 244.5,331.833 245.5,331.5 Z"/></g>
<g><path style="opacity:1" fill="#8cc23e" d="M 105.5,339.5 C 106.167,342.167 106.833,344.833 107.5,347.5C 109.305,352.249 111.305,356.915 113.5,361.5C 110.458,364.701 106.958,367.367 103,369.5C 93.999,364.926 85.8324,359.259 78.5,352.5C 80.4047,352.928 82.238,352.262 84,350.5C 84.3333,350.833 84.6667,351.167 85,351.5C 85.8525,349.875 86.8525,349.542 88,350.5C 89.66,347.664 92.16,346.164 95.5,346C 98.6456,343.366 101.979,341.199 105.5,339.5 Z"/></g>
<g><path style="opacity:1" fill="#60a82d" d="M 243.5,333.5 C 249.701,336.767 256.034,339.767 262.5,342.5C 265.109,345.144 268.109,347.311 271.5,349C 277.309,349.653 282.643,351.486 287.5,354.5C 289.97,357.774 291.636,361.441 292.5,365.5C 292.565,365.938 292.399,366.272 292,366.5C 276.629,358.04 261.462,349.207 246.5,340C 244.975,338.991 243.308,338.491 241.5,338.5C 241.893,336.716 242.559,335.05 243.5,333.5 Z"/></g>
<g><path style="opacity:1" fill="#9bce4b" d="M 141.5,335.5 C 143.404,335.738 144.738,336.738 145.5,338.5C 144.309,343.355 144.309,348.355 145.5,353.5C 138.098,358.869 130.098,363.202 121.5,366.5C 119.812,366.458 118.146,366.458 116.5,366.5C 115.248,364.999 114.248,363.332 113.5,361.5C 111.305,356.915 109.305,352.249 107.5,347.5C 109.679,349.164 111.512,348.83 113,346.5C 115.37,347.128 117.703,347.461 120,347.5C 126.866,346.029 133.699,343.362 140.5,339.5C 141.246,338.264 141.579,336.93 141.5,335.5 Z"/></g>
<g><path style="opacity:0.997" fill="#8dc235" d="M 17.5,320.5 C 18.1667,320.5 18.5,320.833 18.5,321.5C 22.6145,325.124 26.2812,329.291 29.5,334C 30.4491,334.617 31.2825,334.451 32,333.5C 34.9033,336.017 37.07,338.517 38.5,341C 38.1667,341.333 37.8333,341.667 37.5,342C 39.0911,344.386 40.0911,347.053 40.5,350C 38.3215,350.442 37.6548,351.442 38.5,353C 35.9682,353.619 33.6349,354.619 31.5,356C 41.582,355.75 51.9153,355.583 62.5,355.5C 64.0665,358.283 65.8999,360.949 68,363.5C 68.9744,367.421 70.141,371.254 71.5,375C 68.9822,374.401 66.8156,375.234 65,377.5C 62.8159,378.108 60.8159,377.441 59,375.5C 58.6667,376.167 58.3333,376.833 58,377.5C 57,376.167 56,376.167 55,377.5C 52.2083,376.742 49.3749,375.742 46.5,374.5C 44.6318,374.946 42.7985,375.279 41,375.5C 38.2995,373.731 35.4662,372.398 32.5,371.5C 23.4126,358.416 17.7459,343.916 15.5,328C 15.2999,325.134 15.9666,322.634 17.5,320.5 Z"/></g>
<g><path style="opacity:1" fill="#4ea034" d="M 241.5,338.5 C 243.308,338.491 244.975,338.991 246.5,340C 261.462,349.207 276.629,358.04 292,366.5C 292.399,366.272 292.565,365.938 292.5,365.5C 294.376,368.737 294.71,372.07 293.5,375.5C 276.035,365.264 258.369,355.264 240.5,345.5C 240.5,345.167 240.5,344.833 240.5,344.5C 240.325,342.379 240.659,340.379 241.5,338.5 Z"/></g>
<g><path style="opacity:0.957" fill="#108149" d="M 276.5,380.5 C 264.606,380.864 253.939,377.53 244.5,370.5C 243.612,367.946 243.279,365.279 243.5,362.5C 243.435,362.062 243.601,361.728 244,361.5C 254.978,367.734 265.812,374.067 276.5,380.5 Z"/></g>
<g><path style="opacity:1" fill="#8cc241" d="M 145.5,353.5 C 147.207,362.329 149.541,370.996 152.5,379.5C 151.603,380.598 150.77,380.598 150,379.5C 146.998,383.334 143.831,387 140.5,390.5C 139.167,390.167 137.833,389.833 136.5,389.5C 132.526,385.862 128.526,382.195 124.5,378.5C 121.441,374.772 118.774,370.772 116.5,366.5C 118.146,366.458 119.812,366.458 121.5,366.5C 130.098,363.202 138.098,358.869 145.5,353.5 Z"/></g>
<g><path style="opacity:0.986" fill="#1e8642" d="M 240.5,345.5 C 258.369,355.264 276.035,365.264 293.5,375.5C 292.547,377.61 290.881,378.777 288.5,379C 284.56,380.015 280.56,380.515 276.5,380.5C 265.812,374.067 254.978,367.734 244,361.5C 243.601,361.728 243.435,362.062 243.5,362.5C 240.997,357.244 239.997,351.578 240.5,345.5 Z"/></g>
<g><path style="opacity:1" fill="#82b833" d="M 18.5,321.5 C 28.4829,326.825 38.4829,332.159 48.5,337.5C 51.1071,336.863 53.4404,335.696 55.5,334C 57.2043,331.243 59.5377,329.91 62.5,330C 64.9701,333.778 67.3034,337.611 69.5,341.5C 67.3805,342.451 65.7138,343.951 64.5,346C 62.7928,346.195 61.1261,346.195 59.5,346C 61.2658,348.096 62.5991,350.429 63.5,353C 65.8668,354.845 68.5335,356.011 71.5,356.5C 77.0314,360.367 81.8648,365.033 86,370.5C 88.4483,374.319 89.6149,378.319 89.5,382.5C 91.0453,383.452 92.712,383.785 94.5,383.5C 85.8164,385.004 77.1498,386.837 68.5,389C 66.0532,387.771 65.8865,386.271 68,384.5C 68.3333,384.833 68.6667,385.167 69,385.5C 72.1667,384.333 75.3333,383.167 78.5,382C 77.1102,379.006 78.1102,377.006 81.5,376C 80.5305,374.242 79.3639,373.742 78,374.5C 77.2496,373.874 76.4162,373.374 75.5,373C 76.1562,370.67 75.1562,369.003 72.5,368C 72.8333,367.667 73.1667,367.333 73.5,367C 70.6727,363.666 68.006,360.166 65.5,356.5C 64.675,355.614 63.675,355.281 62.5,355.5C 51.9153,355.583 41.582,355.75 31.5,356C 33.6349,354.619 35.9682,353.619 38.5,353C 37.6548,351.442 38.3215,350.442 40.5,350C 40.0911,347.053 39.0911,344.386 37.5,342C 37.8333,341.667 38.1667,341.333 38.5,341C 37.07,338.517 34.9033,336.017 32,333.5C 31.2825,334.451 30.4491,334.617 29.5,334C 26.2812,329.291 22.6145,325.124 18.5,321.5 Z"/></g>
<g><path style="opacity:1" fill="#6ca831" d="M 69.5,341.5 C 72.1518,345.482 75.1518,349.149 78.5,352.5C 85.8324,359.259 93.999,364.926 103,369.5C 106.958,367.367 110.458,364.701 113.5,361.5C 114.248,363.332 115.248,364.999 116.5,366.5C 118.774,370.772 121.441,374.772 124.5,378.5C 123.527,379.984 122.193,380.484 120.5,380C 115.544,376.328 110.211,373.662 104.5,372C 108.683,375.219 112.016,379.052 114.5,383.5C 110.753,383.608 107.086,383.108 103.5,382C 98.2029,376.032 92.8695,370.032 87.5,364C 83.8732,362.519 80.5398,360.519 77.5,358C 75.5643,357.187 73.5643,356.687 71.5,356.5C 68.5335,356.011 65.8668,354.845 63.5,353C 62.5991,350.429 61.2658,348.096 59.5,346C 61.1261,346.195 62.7928,346.195 64.5,346C 65.7138,343.951 67.3805,342.451 69.5,341.5 Z"/></g>
<g><path style="opacity:1" fill="#a9dc57" d="M 145.5,338.5 C 152.897,344.895 159.563,351.895 165.5,359.5C 165.833,360.5 166.5,361.167 167.5,361.5C 176.563,375.636 182.896,390.97 186.5,407.5C 186.5,408.833 186.5,410.167 186.5,411.5C 186.567,412.959 186.234,414.292 185.5,415.5C 185.44,416.043 185.107,416.376 184.5,416.5C 181.139,414.489 177.806,412.489 174.5,410.5C 164.932,401.676 157.598,391.342 152.5,379.5C 149.541,370.996 147.207,362.329 145.5,353.5C 144.309,348.355 144.309,343.355 145.5,338.5 Z"/></g>
<g><path style="opacity:0.981" fill="#91c636" d="M 240.5,344.5 C 240.5,344.833 240.5,345.167 240.5,345.5C 239.997,351.578 240.997,357.244 243.5,362.5C 243.279,365.279 243.612,367.946 244.5,370.5C 245.055,381.154 242.388,390.821 236.5,399.5C 236.189,398.522 235.522,397.855 234.5,397.5C 233.167,398.167 231.833,398.833 230.5,399.5C 230.167,398.833 229.833,398.167 229.5,397.5C 226.986,399.569 224.652,399.736 222.5,398C 224.997,397.588 226.997,396.422 228.5,394.5C 228.333,394.167 228.167,393.833 228,393.5C 225.701,396.106 223.534,396.106 221.5,393.5C 227.619,384.351 229.619,374.351 227.5,363.5C 231.102,359.395 234.935,355.395 239,351.5C 239.186,348.964 239.686,346.631 240.5,344.5 Z"/></g>
<g><path style="opacity:1" fill="#1c1c1c" d="M 267.5,441.5 C 303.754,439.23 327.42,420.897 338.5,386.5C 341.056,385.457 343.223,383.79 345,381.5C 345.333,385.167 345.667,388.833 346,392.5C 346.615,390.884 347.615,389.551 349,388.5C 349.333,392.167 349.667,395.833 350,399.5C 350.667,398.833 351.333,398.167 352,397.5C 352.5,415.164 352.667,432.83 352.5,450.5C 349.476,451.429 346.642,452.762 344,454.5C 342.701,454.034 341.201,454.034 339.5,454.5C 339.5,455.5 339.5,456.5 339.5,457.5C 324.298,459.566 308.965,460.066 293.5,459C 293.833,458.667 294.167,458.333 294.5,458C 291.167,457.667 287.833,457.333 284.5,457C 284.833,456.667 285.167,456.333 285.5,456C 281.833,455.667 278.167,455.333 274.5,455C 274.833,454.667 275.167,454.333 275.5,454C 271.5,453.667 267.5,453.333 263.5,453C 264.167,452.333 264.833,451.667 265.5,451C 263.5,450.667 261.5,450.333 259.5,450C 262.371,447.297 265.038,444.464 267.5,441.5 Z"/></g>
<g><path style="opacity:1" fill="#75ae2e" d="M 71.5,356.5 C 73.5643,356.687 75.5643,357.187 77.5,358C 80.5398,360.519 83.8732,362.519 87.5,364C 92.8695,370.032 98.2029,376.032 103.5,382C 107.086,383.108 110.753,383.608 114.5,383.5C 117.625,383.865 120.625,384.698 123.5,386C 131.439,392.102 138.106,399.269 143.5,407.5C 132.929,408.317 122.596,410.317 112.5,413.5C 112.062,413.565 111.728,413.399 111.5,413C 112.126,412.25 112.626,411.416 113,410.5C 115.819,410.065 117.985,408.231 119.5,405C 120.425,402.371 120.425,400.038 119.5,398C 116.142,391.975 111.475,387.308 105.5,384C 101.848,383.501 98.1817,383.335 94.5,383.5C 92.712,383.785 91.0453,383.452 89.5,382.5C 89.6149,378.319 88.4483,374.319 86,370.5C 81.8648,365.033 77.0314,360.367 71.5,356.5 Z"/></g>
<g><path style="opacity:1" fill="#6eac39" d="M 152.5,379.5 C 157.598,391.342 164.932,401.676 174.5,410.5C 168.702,407.767 163.035,404.767 157.5,401.5C 151.663,398.082 145.996,394.416 140.5,390.5C 143.831,387 146.998,383.334 150,379.5C 150.77,380.598 151.603,380.598 152.5,379.5 Z"/></g>
<g><path style="opacity:0.987" fill="#83b92a" d="M 62.5,355.5 C 63.675,355.281 64.675,355.614 65.5,356.5C 68.006,360.166 70.6727,363.666 73.5,367C 73.1667,367.333 72.8333,367.667 72.5,368C 75.1562,369.003 76.1562,370.67 75.5,373C 76.4162,373.374 77.2496,373.874 78,374.5C 79.3639,373.742 80.5305,374.242 81.5,376C 78.1102,377.006 77.1102,379.006 78.5,382C 75.3333,383.167 72.1667,384.333 69,385.5C 68.6667,385.167 68.3333,384.833 68,384.5C 65.8865,386.271 66.0532,387.771 68.5,389C 77.1498,386.837 85.8164,385.004 94.5,383.5C 98.1817,383.335 101.848,383.501 105.5,384C 111.475,387.308 116.142,391.975 119.5,398C 120.425,400.038 120.425,402.371 119.5,405C 117.985,408.231 115.819,410.065 113,410.5C 112.626,411.416 112.126,412.25 111.5,413C 111.728,413.399 112.062,413.565 112.5,413.5C 110.432,414.375 108.432,415.541 106.5,417C 112.997,420.414 119.33,424.081 125.5,428C 127.708,428.191 129.708,428.691 131.5,429.5C 114.713,428.569 98.7127,424.569 83.5,417.5C 62.068,407.067 45.068,391.734 32.5,371.5C 35.4662,372.398 38.2995,373.731 41,375.5C 42.7985,375.279 44.6318,374.946 46.5,374.5C 49.3749,375.742 52.2083,376.742 55,377.5C 56,376.167 57,376.167 58,377.5C 58.3333,376.833 58.6667,376.167 59,375.5C 60.8159,377.441 62.8159,378.108 65,377.5C 66.8156,375.234 68.9822,374.401 71.5,375C 70.141,371.254 68.9744,367.421 68,363.5C 65.8999,360.949 64.0665,358.283 62.5,355.5 Z"/></g>
<g><path style="opacity:1" fill="#5b9c30" d="M 124.5,378.5 C 128.526,382.195 132.526,385.862 136.5,389.5C 140.696,396.042 145.696,402.042 151.5,407.5C 148.833,407.5 146.167,407.5 143.5,407.5C 138.106,399.269 131.439,392.102 123.5,386C 120.625,384.698 117.625,383.865 114.5,383.5C 112.016,379.052 108.683,375.219 104.5,372C 110.211,373.662 115.544,376.328 120.5,380C 122.193,380.484 123.527,379.984 124.5,378.5 Z"/></g>
<g><path style="opacity:1" fill="#4c9333" d="M 136.5,389.5 C 137.833,389.833 139.167,390.167 140.5,390.5C 145.996,394.416 151.663,398.082 157.5,401.5C 157.062,401.435 156.728,401.601 156.5,402C 159.996,406.245 164.33,409.245 169.5,411C 173.983,414.541 178.317,418.041 182.5,421.5C 180.938,421.733 179.605,422.4 178.5,423.5C 172.287,413.735 163.287,408.401 151.5,407.5C 145.696,402.042 140.696,396.042 136.5,389.5 Z"/></g>
<g><path style="opacity:0.991" fill="#83b92e" d="M 221.5,393.5 C 223.534,396.106 225.701,396.106 228,393.5C 228.167,393.833 228.333,394.167 228.5,394.5C 226.997,396.422 224.997,397.588 222.5,398C 224.652,399.736 226.986,399.569 229.5,397.5C 229.833,398.167 230.167,398.833 230.5,399.5C 231.833,398.833 233.167,398.167 234.5,397.5C 235.522,397.855 236.189,398.522 236.5,399.5C 232.177,405.489 227.177,410.822 221.5,415.5C 220.833,415.5 220.167,415.5 219.5,415.5C 215.884,413.682 212.55,411.348 209.5,408.5C 208.035,409.609 207.035,409.109 206.5,407C 204.866,406.506 203.199,406.34 201.5,406.5C 209.173,403.847 215.84,399.514 221.5,393.5 Z"/></g>
<g><path style="opacity:1" fill="#89bf31" d="M 143.5,407.5 C 150.086,413.137 157.086,418.303 164.5,423C 165.305,424.113 165.972,425.279 166.5,426.5C 155.021,429.049 143.355,430.049 131.5,429.5C 129.708,428.691 127.708,428.191 125.5,428C 119.33,424.081 112.997,420.414 106.5,417C 108.432,415.541 110.432,414.375 112.5,413.5C 122.596,410.317 132.929,408.317 143.5,407.5 Z"/></g>
<g><path style="opacity:1" fill="#4d9534" d="M 210.5,419.5 C 206.8,421.245 202.8,422.245 198.5,422.5C 195.36,418.042 191.026,415.709 185.5,415.5C 186.234,414.292 186.567,412.959 186.5,411.5C 187.158,410.602 187.824,409.602 188.5,408.5C 193.594,411.463 198.428,414.796 203,418.5C 203.333,417.833 203.667,417.167 204,416.5C 205.734,418.451 207.901,419.451 210.5,419.5 Z"/></g>
<g><path style="opacity:1" fill="#70ac34" d="M 143.5,407.5 C 146.167,407.5 148.833,407.5 151.5,407.5C 163.287,408.401 172.287,413.735 178.5,423.5C 174.584,424.812 170.584,425.812 166.5,426.5C 165.972,425.279 165.305,424.113 164.5,423C 157.086,418.303 150.086,413.137 143.5,407.5 Z"/></g>
<g><path style="opacity:1" fill="#65a331" d="M 201.5,406.5 C 203.199,406.34 204.866,406.506 206.5,407C 207.035,409.109 208.035,409.609 209.5,408.5C 212.55,411.348 215.884,413.682 219.5,415.5C 218.833,416.167 218.167,416.833 217.5,417.5C 215.167,418.167 212.833,418.833 210.5,419.5C 207.901,419.451 205.734,418.451 204,416.5C 203.667,417.167 203.333,417.833 203,418.5C 198.428,414.796 193.594,411.463 188.5,408.5C 187.824,409.602 187.158,410.602 186.5,411.5C 186.5,410.167 186.5,408.833 186.5,407.5C 188.5,407.5 190.5,407.5 192.5,407.5C 195.482,407.037 198.482,406.704 201.5,406.5 Z"/></g>
<g><path style="opacity:1" fill="#3a8737" d="M 157.5,401.5 C 163.035,404.767 168.702,407.767 174.5,410.5C 177.806,412.489 181.139,414.489 184.5,416.5C 185.107,416.376 185.44,416.043 185.5,415.5C 191.026,415.709 195.36,418.042 198.5,422.5C 197.081,423.451 195.415,423.784 193.5,423.5C 192.833,423.5 192.167,423.5 191.5,423.5C 188.311,423.142 185.311,422.475 182.5,421.5C 178.317,418.041 173.983,414.541 169.5,411C 164.33,409.245 159.996,406.245 156.5,402C 156.728,401.601 157.062,401.435 157.5,401.5 Z"/></g>
<g><path style="opacity:1" fill="#363536" d="M 394.5,418.5 C 395.46,430.502 395.793,442.502 395.5,454.5C 394.069,460.962 391.569,466.962 388,472.5C 387.333,473.833 386.667,473.833 386,472.5C 384.449,475.204 382.449,477.537 380,479.5C 379.667,479.167 379.333,478.833 379,478.5C 378.147,480.125 377.147,480.458 376,479.5C 375.147,481.125 374.147,481.458 373,480.5C 370.371,480.928 368.038,481.928 366,483.5C 365.667,482.833 365.333,482.167 365,481.5C 363.312,483.045 361.312,484.045 359,484.5C 353.259,484.128 346.759,484.128 339.5,484.5C 339.587,481.402 339.087,481.068 338,483.5C 336.009,482.008 333.842,481.008 331.5,480.5C 363.076,470.591 384.076,449.924 394.5,418.5 Z"/></g>
<g><path style="opacity:1" fill="#171616" d="M 83.5,417.5 C 98.7127,424.569 114.713,428.569 131.5,429.5C 143.355,430.049 155.021,429.049 166.5,426.5C 170.584,425.812 174.584,424.812 178.5,423.5C 179.605,422.4 180.938,421.733 182.5,421.5C 185.311,422.475 188.311,423.142 191.5,423.5C 191.5,425.5 191.5,427.5 191.5,429.5C 183.472,429.169 175.472,429.502 167.5,430.5C 167.167,431.167 166.833,431.833 166.5,432.5C 155.002,433.707 143.502,433.707 132,432.5C 124.168,432.468 116.835,434.135 110,437.5C 109.617,436.944 109.117,436.611 108.5,436.5C 100.266,435.806 91.9326,435.139 83.5,434.5C 83.5,428.833 83.5,423.167 83.5,417.5 Z"/></g>
<g><path style="opacity:0.999" fill="#2c2b2c" d="M 83.5,434.5 C 91.9326,435.139 100.266,435.806 108.5,436.5C 108.5,438.5 108.5,440.5 108.5,442.5C 100.167,442.5 91.8333,442.5 83.5,442.5C 83.5,439.833 83.5,437.167 83.5,434.5 Z"/></g>
<g><path style="opacity:1" fill="#212021" d="M 191.5,423.5 C 192.167,423.5 192.833,423.5 193.5,423.5C 193.5,429.5 193.5,435.5 193.5,441.5C 194.5,441.5 195.5,441.5 196.5,441.5C 196.969,445.894 195.969,449.894 193.5,453.5C 192.979,445.794 192.312,440.128 191.5,436.5C 183.51,435.977 175.51,435.644 167.5,435.5C 166.949,438.807 166.616,442.14 166.5,445.5C 154.778,445.094 143.112,444.094 131.5,442.5C 124.618,441.625 118.951,443.792 114.5,449C 114.848,451.055 114.181,453.055 112.5,455C 113.091,458.515 113.091,461.849 112.5,465C 113.732,468.864 115.066,472.697 116.5,476.5C 116.333,477.833 116.167,479.167 116,480.5C 114.961,479.29 113.794,478.29 112.5,477.5C 110.498,474.488 109.331,471.155 109,467.5C 108.5,459.173 108.334,450.84 108.5,442.5C 108.5,440.5 108.5,438.5 108.5,436.5C 109.117,436.611 109.617,436.944 110,437.5C 116.835,434.135 124.168,432.468 132,432.5C 143.502,433.707 155.002,433.707 166.5,432.5C 166.833,431.833 167.167,431.167 167.5,430.5C 175.472,429.502 183.472,429.169 191.5,429.5C 191.5,427.5 191.5,425.5 191.5,423.5 Z"/></g>
<g><path style="opacity:1" fill="#2a292a" d="M 217.5,417.5 C 217.169,425.196 217.503,432.862 218.5,440.5C 224.439,441.457 230.439,441.79 236.5,441.5C 236.335,444.85 236.502,448.183 237,451.5C 238.362,453.436 240.195,454.769 242.5,455.5C 242.162,457.655 242.162,459.989 242.5,462.5C 245.527,463.037 248.527,463.871 251.5,465C 243.166,465.521 242.833,466.187 250.5,467C 249.167,467.667 249.167,468.333 250.5,469C 247.611,470.025 245.611,471.359 244.5,473C 244.833,473.333 245.167,473.667 245.5,474C 244.552,474.483 243.552,474.649 242.5,474.5C 242.577,477.012 241.577,479.012 239.5,480.5C 234.926,482.979 230.093,484.645 225,485.5C 221.449,485.063 217.782,485.063 214,485.5C 207.664,483.076 200.664,480.743 193,478.5C 192.768,482.555 192.268,486.555 191.5,490.5C 157.183,491.927 122.85,492.76 88.5,493C 89.2524,493.671 89.5858,494.504 89.5,495.5C 85.1406,490.76 83.1406,485.093 83.5,478.5C 93.2193,478.782 102.886,478.449 112.5,477.5C 113.794,478.29 114.961,479.29 116,480.5C 116.167,479.167 116.333,477.833 116.5,476.5C 115.066,472.697 113.732,468.864 112.5,465C 113.091,461.849 113.091,458.515 112.5,455C 114.181,453.055 114.848,451.055 114.5,449C 118.951,443.792 124.618,441.625 131.5,442.5C 143.112,444.094 154.778,445.094 166.5,445.5C 166.616,442.14 166.949,438.807 167.5,435.5C 175.51,435.644 183.51,435.977 191.5,436.5C 192.312,440.128 192.979,445.794 193.5,453.5C 195.969,449.894 196.969,445.894 196.5,441.5C 195.5,441.5 194.5,441.5 193.5,441.5C 193.5,435.5 193.5,429.5 193.5,423.5C 195.415,423.784 197.081,423.451 198.5,422.5C 202.8,422.245 206.8,421.245 210.5,419.5C 212.833,418.833 215.167,418.167 217.5,417.5 Z"/></g>
<g><path style="opacity:0.999" fill="#3e3d3e" d="M 83.5,442.5 C 91.8333,442.5 100.167,442.5 108.5,442.5C 108.334,450.84 108.5,459.173 109,467.5C 109.331,471.155 110.498,474.488 112.5,477.5C 102.886,478.449 93.2193,478.782 83.5,478.5C 83.5,466.5 83.5,454.5 83.5,442.5 Z"/></g>
<g><path style="opacity:1" fill="#3a393a" d="M 167.5,444.5 C 175.5,444.5 183.5,444.5 191.5,444.5C 191.5,456.833 191.5,469.167 191.5,481.5C 182.143,481.832 172.81,481.498 163.5,480.5C 164.333,478.833 165.167,477.167 166,475.5C 166.399,465.156 166.899,454.823 167.5,444.5 Z"/></g>
<g><path style="opacity:1" fill="#1b1a1b" d="M 350.5,500.5 C 347.135,502.462 343.468,503.962 339.5,505C 328.836,507.899 318.17,510.066 307.5,511.5C 244.5,511.5 181.5,511.5 118.5,511.5C 110.402,509.627 102.736,506.461 95.5,502C 94.2899,500.961 93.2899,499.794 92.5,498.5C 125.151,496.672 158.151,495.839 191.5,496C 192.071,494.795 192.738,493.628 193.5,492.5C 203.012,494.783 212.678,495.95 222.5,496C 260.5,496.333 298.5,496.667 336.5,497C 339.5,497.333 342.5,497.667 345.5,498C 346,498.5 346.5,499 347,499.5C 348.313,498.713 349.48,499.046 350.5,500.5 Z"/></g>
</svg>
